# 3ds Max Wavefront OBJ Exporter v0.97b - (c)2007 guruware
# File Created: 28.11.2011 14:15:37

mtllib crop.mtl

#
# object Plane001
#

v  -0.2000 0.1000 0.0000
v  -0.2000 0.0000 0.0000
v  -0.1000 0.1000 0.0000
v  -0.1000 0.0000 0.0000
v  0.0000 0.1000 0.0000
v  0.0000 0.0000 0.0000
v  0.1000 0.1000 0.0000
v  0.1000 0.0000 0.0000
v  0.2000 0.1000 0.0000
v  0.2000 0.0000 0.0000
v  -0.2000 0.2000 -0.0000
v  -0.1000 0.2000 -0.0000
v  0.0000 0.2000 -0.0000
v  0.1000 0.2000 -0.0000
v  0.2000 0.2000 -0.0000
v  -0.2000 0.3000 -0.0000
v  -0.1000 0.3000 -0.0000
v  0.0000 0.3000 -0.0000
v  0.1000 0.3000 -0.0000
v  0.2000 0.3000 -0.0000
v  -0.2000 0.4000 -0.0000
v  -0.1000 0.4000 -0.0000
v  0.0000 0.4000 -0.0000
v  0.1000 0.4000 -0.0000
v  0.2000 0.4000 -0.0000
# 25 vertices

vn 0.0000 0.0000 1.0000
# 1 vertex normals

vt 0.0000 0.2500 0.0000
vt 0.0000 0.0000 0.0000
vt 0.2500 0.2500 0.0000
vt 0.2500 0.0000 0.0000
vt 0.5000 0.2500 0.0000
vt 0.5000 0.0000 0.0000
vt 0.7500 0.2500 0.0000
vt 0.7500 0.0000 0.0000
vt 1.0000 0.2500 0.0000
vt 1.0000 0.0000 0.0000
vt 0.0000 0.5000 0.0000
vt 0.2500 0.5000 0.0000
vt 0.5000 0.5000 0.0000
vt 0.7500 0.5000 0.0000
vt 1.0000 0.5000 0.0000
vt 0.0000 0.7500 0.0000
vt 0.2500 0.7500 0.0000
vt 0.5000 0.7500 0.0000
vt 0.7500 0.7500 0.0000
vt 1.0000 0.7500 0.0000
vt 0.0000 1.0000 0.0000
vt 0.2500 1.0000 0.0000
vt 0.5000 1.0000 0.0000
vt 0.7500 1.0000 0.0000
vt 1.0000 1.0000 0.0000
# 25 texture coords

g Plane001
usemtl Material__25
s 1
f 1/1/1 2/2/1 3/3/1 
f 4/4/1 3/3/1 2/2/1 
f 3/3/1 4/4/1 5/5/1 
f 6/6/1 5/5/1 4/4/1 
f 5/5/1 6/6/1 7/7/1 
f 8/8/1 7/7/1 6/6/1 
f 7/7/1 8/8/1 9/9/1 
f 10/10/1 9/9/1 8/8/1 
f 11/11/1 1/1/1 12/12/1 
f 3/3/1 12/12/1 1/1/1 
f 12/12/1 3/3/1 13/13/1 
f 5/5/1 13/13/1 3/3/1 
f 13/13/1 5/5/1 14/14/1 
f 7/7/1 14/14/1 5/5/1 
f 14/14/1 7/7/1 15/15/1 
f 9/9/1 15/15/1 7/7/1 
f 16/16/1 11/11/1 17/17/1 
f 12/12/1 17/17/1 11/11/1 
f 17/17/1 12/12/1 18/18/1 
f 13/13/1 18/18/1 12/12/1 
f 18/18/1 13/13/1 19/19/1 
f 14/14/1 19/19/1 13/13/1 
f 19/19/1 14/14/1 20/20/1 
f 15/15/1 20/20/1 14/14/1 
f 21/21/1 16/16/1 22/22/1 
f 17/17/1 22/22/1 16/16/1 
f 22/22/1 17/17/1 23/23/1 
f 18/18/1 23/23/1 17/17/1 
f 23/23/1 18/18/1 24/24/1 
f 19/19/1 24/24/1 18/18/1 
f 24/24/1 19/19/1 25/25/1 
f 20/20/1 25/25/1 19/19/1 
# 32 faces

#
# object Plane002
#

v  0.0000 0.1000 -0.2000
v  -0.0000 0.0000 -0.2000
v  -0.0000 0.1000 -0.1000
v  -0.0000 0.0000 -0.1000
v  -0.0000 0.1000 -0.0000
v  -0.0000 0.0000 -0.0000
v  -0.0000 0.1000 0.1000
v  -0.0000 0.0000 0.1000
v  -0.0000 0.1000 0.2000
v  -0.0000 0.0000 0.2000
v  0.0000 0.2000 -0.2000
v  0.0000 0.2000 -0.1000
v  0.0000 0.2000 -0.0000
v  -0.0000 0.2000 0.1000
v  -0.0000 0.2000 0.2000
v  0.0000 0.3000 -0.2000
v  0.0000 0.3000 -0.1000
v  0.0000 0.3000 0.0000
v  0.0000 0.3000 0.1000
v  -0.0000 0.3000 0.2000
v  0.0000 0.4000 -0.2000
v  0.0000 0.4000 -0.1000
v  0.0000 0.4000 0.0000
v  0.0000 0.4000 0.1000
v  0.0000 0.4000 0.2000
# 25 vertices

vn -1.0000 0.0000 -0.0000
# 1 vertex normals

vt 0.0000 0.2500 0.0000
vt 0.0000 0.0000 0.0000
vt 0.2500 0.2500 0.0000
vt 0.2500 0.0000 0.0000
vt 0.5000 0.2500 0.0000
vt 0.5000 0.0000 0.0000
vt 0.7500 0.2500 0.0000
vt 0.7500 0.0000 0.0000
vt 1.0000 0.2500 0.0000
vt 1.0000 0.0000 0.0000
vt 0.0000 0.5000 0.0000
vt 0.2500 0.5000 0.0000
vt 0.5000 0.5000 0.0000
vt 0.7500 0.5000 0.0000
vt 1.0000 0.5000 0.0000
vt 0.0000 0.7500 0.0000
vt 0.2500 0.7500 0.0000
vt 0.5000 0.7500 0.0000
vt 0.7500 0.7500 0.0000
vt 1.0000 0.7500 0.0000
vt 0.0000 1.0000 0.0000
vt 0.2500 1.0000 0.0000
vt 0.5000 1.0000 0.0000
vt 0.7500 1.0000 0.0000
vt 1.0000 1.0000 0.0000
# 25 texture coords

g Plane002
usemtl Material__25
s 1
f 26/26/2 27/27/2 28/28/2 
f 29/29/2 28/28/2 27/27/2 
f 28/28/2 29/29/2 30/30/2 
f 31/31/2 30/30/2 29/29/2 
f 30/30/2 31/31/2 32/32/2 
f 33/33/2 32/32/2 31/31/2 
f 32/32/2 33/33/2 34/34/2 
f 35/35/2 34/34/2 33/33/2 
f 36/36/2 26/26/2 37/37/2 
f 28/28/2 37/37/2 26/26/2 
f 37/37/2 28/28/2 38/38/2 
f 30/30/2 38/38/2 28/28/2 
f 38/38/2 30/30/2 39/39/2 
f 32/32/2 39/39/2 30/30/2 
f 39/39/2 32/32/2 40/40/2 
f 34/34/2 40/40/2 32/32/2 
f 41/41/2 36/36/2 42/42/2 
f 37/37/2 42/42/2 36/36/2 
f 42/42/2 37/37/2 43/43/2 
f 38/38/2 43/43/2 37/37/2 
f 43/43/2 38/38/2 44/44/2 
f 39/39/2 44/44/2 38/38/2 
f 44/44/2 39/39/2 45/45/2 
f 40/40/2 45/45/2 39/39/2 
f 46/46/2 41/41/2 47/47/2 
f 42/42/2 47/47/2 41/41/2 
f 47/47/2 42/42/2 48/48/2 
f 43/43/2 48/48/2 42/42/2 
f 48/48/2 43/43/2 49/49/2 
f 44/44/2 49/49/2 43/43/2 
f 49/49/2 44/44/2 50/50/2 
f 45/45/2 50/50/2 44/44/2 
# 32 faces

