# 3ds Max Wavefront OBJ Exporter v0.97b - (c)2007 guruware
# File Created: 26.04.2011 16:45:39

mtllib cupboard01.mtl

#
# object door_L
#

v  0.1394 0.8415 -0.0000
v  0.1394 0.1497 -0.0000
v  0.1394 0.1497 0.6079
v  0.1394 0.8415 0.6079
v  0.1604 0.8415 -0.0000
v  0.1604 0.8415 0.6079
v  0.1604 0.1497 0.6079
v  0.1604 0.1497 -0.0000
# 8 vertices

vn -1.0000 0.0000 -0.0000
vn 1.0000 0.0000 0.0000
vn 0.0000 -1.0000 -0.0000
vn 0.0000 0.0000 -1.0000
vn 0.0000 1.0000 -0.0000
vn -0.0000 0.0000 1.0000
# 6 vertex normals

vt 0.0138 0.9891 0.0000
vt 0.0138 0.5182 0.0000
vt 0.4277 0.5181 0.0000
vt 0.4277 0.9891 0.0000
vt 0.4847 0.9977 0.0000
vt 0.9018 0.9977 0.0000
vt 0.9018 0.5050 0.0000
vt 0.4848 0.5050 0.0000
vt 0.9040 0.4899 0.0000
vt 0.4826 0.4899 0.0000
vt 0.4724 0.5024 0.0000
vt 0.4724 1.0002 0.0000
vt 0.4826 1.0128 0.0000
vt 0.9040 1.0128 0.0000
vt 0.9142 1.0002 0.0000
vt 0.9142 0.5024 0.0000
# 16 texture coords

g door_L
usemtl bookshelf_mat
s 2
f 1/1/1 2/2/1 3/3/1 
f 1/1/1 3/3/1 4/4/1 
s 4
f 5/5/2 6/6/2 7/7/2 
f 5/5/2 7/7/2 8/8/2 
s 8
f 8/8/3 7/7/3 3/9/3 
f 8/8/3 3/9/3 2/10/3 
s 16
f 5/5/4 8/8/4 2/11/4 
f 5/5/4 2/11/4 1/12/4 
s 32
f 6/6/5 5/5/5 1/13/5 
f 6/6/5 1/13/5 4/14/5 
s 64
f 7/7/6 6/6/6 4/15/6 
f 7/7/6 4/15/6 3/16/6 
# 12 faces

#
# object door_R
#

v  0.1394 0.8415 -0.6079
v  0.1394 0.1497 -0.6079
v  0.1394 0.1497 -0.0000
v  0.1394 0.8415 -0.0000
v  0.1604 0.1497 -0.0000
v  0.1604 0.1497 -0.6079
v  0.1604 0.8415 -0.6079
v  0.1604 0.8415 -0.0000
# 8 vertices

vn -1.0000 0.0000 -0.0000
vn 1.0000 0.0000 0.0000
vn 0.0000 -1.0000 -0.0000
vn -0.0000 0.0000 1.0000
vn 0.0000 1.0000 -0.0000
vn 0.0000 0.0000 -1.0000
# 6 vertex normals

vt 0.4277 0.4869 0.0000
vt 0.4277 0.0160 0.0000
vt 0.0138 0.0160 0.0000
vt 0.0138 0.4869 0.0000
vt 0.4808 0.0028 0.0000
vt 0.9017 0.0028 0.0000
vt 0.9017 0.4955 0.0000
vt 0.4808 0.4955 0.0000
vt 0.4787 -0.0123 0.0000
vt 0.9039 -0.0123 0.0000
vt 0.4684 0.4980 0.0000
vt 0.4684 0.0002 0.0000
vt 0.9038 0.5106 0.0000
vt 0.4787 0.5106 0.0000
vt 0.9142 0.0002 0.0000
vt 0.9142 0.4980 0.0000
# 16 texture coords

g door_R
usemtl bookshelf_mat
s 2
f 9/17/7 10/18/7 11/19/7 
f 9/17/7 11/19/7 12/20/7 
s 4
f 13/21/8 14/22/8 15/23/8 
f 13/21/8 15/23/8 16/24/8 
s 8
f 11/25/9 10/26/9 14/22/9 
f 11/25/9 14/22/9 13/21/9 
s 16
f 12/27/10 11/28/10 13/21/10 
f 12/27/10 13/21/10 16/24/10 
s 32
f 9/29/11 12/30/11 16/24/11 
f 9/29/11 16/24/11 15/23/11 
s 64
f 10/31/12 9/32/12 15/23/12 
f 10/31/12 15/23/12 14/22/12 
# 12 faces

#
# object shelf
#

v  -0.1667 0.0030 0.6289
v  -0.1667 1.8686 0.6289
v  -0.1667 1.8686 -0.6289
v  -0.1667 0.0030 -0.6289
v  -0.1457 0.0030 -0.0000
v  -0.1457 1.8686 -0.0000
v  -0.1457 1.8686 0.6079
v  -0.1457 0.0030 0.6079
v  0.1687 1.8686 -0.6289
v  0.1687 0.0030 -0.6289
v  0.1687 0.0030 0.6289
v  0.1687 1.8686 0.6289
v  0.1687 1.8686 -0.6079
v  0.1687 0.0030 -0.6079
v  0.1687 0.0030 0.6079
v  0.1687 1.8686 0.6079
v  -0.1457 1.8686 -0.6079
v  -0.1457 0.0030 -0.6079
v  0.1604 0.1287 -0.6079
v  0.1604 0.1287 0.6079
v  0.1604 0.0030 0.6079
v  0.1604 0.0030 -0.6079
v  0.1604 0.9882 -0.6079
v  0.1604 0.9882 0.6079
v  0.1604 0.8624 0.6079
v  0.1604 0.8624 -0.6079
v  0.1394 1.8686 -0.6079
v  0.1394 1.7429 -0.6079
v  0.1394 1.7429 0.6079
v  0.1394 1.8686 0.6079
v  0.1604 1.8686 -0.6079
v  0.1604 1.8686 0.6079
v  0.1604 1.7429 0.6079
v  0.1604 1.7429 -0.6079
v  0.1536 1.3655 0.6079
v  -0.1541 1.3655 0.6079
v  -0.1541 1.3655 -0.6079
v  0.1536 1.3655 -0.6079
v  0.1536 1.3865 0.6079
v  0.1536 1.3865 -0.6079
v  -0.1541 1.3865 -0.6079
v  -0.1541 1.3865 0.6079
v  0.1687 0.9882 0.6079
v  0.1687 0.9882 -0.6079
v  0.1687 1.0092 0.6079
v  0.1687 1.0092 -0.6079
v  -0.1541 1.0092 -0.6079
v  -0.1541 1.0092 0.6079
v  0.1687 0.8415 0.6079
v  -0.1541 0.8415 0.6079
v  -0.1541 0.8415 -0.6079
v  0.1687 0.8415 -0.6079
v  0.1687 0.8624 0.6079
v  0.1687 0.8624 -0.6079
v  0.1268 0.4851 0.6079
v  -0.1541 0.4851 0.6079
v  -0.1541 0.4851 -0.6079
v  0.1268 0.4851 -0.6079
v  0.1268 0.5061 0.6079
v  0.1268 0.5061 -0.6079
v  -0.1541 0.5061 -0.6079
v  -0.1541 0.5061 0.6079
v  0.1687 0.1287 0.6079
v  0.1687 0.1287 -0.6079
v  0.1427 0.0826 -0.2761
v  0.1427 0.0826 -0.5744
v  -0.1131 0.0826 -0.5744
v  -0.1131 0.0826 -0.2761
v  0.1687 0.1497 -0.6079
v  0.1687 0.1497 0.6079
v  0.1427 0.1497 -0.5744
v  0.1427 0.1497 -0.2761
v  -0.1541 0.1497 -0.6079
v  -0.1131 0.1497 -0.5744
v  -0.1541 0.1497 0.6079
v  -0.1131 0.1497 -0.2761
v  0.1687 1.8686 0.6310
v  -0.1687 1.8686 0.6310
v  -0.1687 1.8686 -0.6310
v  0.1687 1.8686 -0.6310
v  0.1687 1.8896 0.6310
v  0.1687 1.8896 -0.6310
v  -0.1687 1.8896 -0.6310
v  -0.1687 1.8896 0.6310
# 84 vertices

vn -1.0000 0.0000 -0.0000
vn 1.0000 0.0000 0.0000
vn 0.0000 0.0000 -1.0000
vn -0.0000 0.0000 1.0000
vn 0.7071 0.7071 0.0000
vn 0.0000 -1.0000 -0.0000
vn 0.0000 1.0000 -0.0000
# 7 vertex normals

vt 0.0000 0.0000 -0.6894
vt 0.0000 1.0000 2.0378
vt 0.4682 1.0000 0.6894
vt 0.4682 0.0000 -2.0378
vt 0.4528 -0.1637 -1.3920
vt 0.4528 1.0000 1.3638
vt 0.0000 1.0000 2.0206
vt 0.0000 -0.1637 -0.7353
vt 0.0667 -0.5984 5.9055
vt 0.0667 1.0000 5.9055
vt 0.4630 1.0000 5.9055
vt 0.4630 -0.5984 5.9055
vt 0.0024 1.0000 0.0000
vt 0.0024 -0.5930 -0.0000
vt 0.4050 -0.5930 -0.0000
vt 0.4050 1.0000 0.0000
vt 0.3574 -0.4584 -0.4094
vt 0.3574 1.1802 2.5812
vt 0.3120 1.1802 2.5571
vt 0.3120 -0.4584 -0.4335
vt 0.2276 1.1802 1.1376
vt 0.2276 -0.4584 -1.8530
vt 0.2731 -0.4584 -1.8290
vt 0.2731 1.1802 1.1616
vt 0.3589 -0.1175 5.8071
vt 0.3589 1.3152 5.8071
vt 0.0198 1.3152 5.8071
vt 0.0198 -0.1175 5.8071
vt 0.4658 1.1763 0.0984
vt 0.4658 -0.2832 0.0984
vt 0.0999 -0.2832 0.0984
vt 0.0999 1.1763 0.0984
vt 0.9066 0.9997 -1.5715
vt 0.9066 0.0000 -0.5249
vt 0.9898 0.0000 -0.4767
vt 0.9898 0.9997 -1.5233
vt 0.9066 1.0000 -0.4428
vt 0.9066 -0.0000 0.6039
vt 0.9901 0.0000 0.4021
vt 0.9901 1.0000 -0.6445
vt 0.0243 0.9831 0.0000
vt 0.1339 0.9832 0.0000
vt 0.1339 0.0131 -0.0000
vt 0.0243 0.0131 -0.0000
vt 0.9895 0.9995 0.4697
vt 0.9895 -0.0006 1.5163
vt 0.9069 -0.0006 1.5645
vt 0.9069 0.9995 0.5179
vt 0.4537 0.9884 0.4222
vt 0.4537 0.0250 0.4222
vt 0.4066 0.0250 0.4222
vt 0.4066 0.9884 0.4222
vt 0.2885 0.0207 0.1988
vt 0.0131 0.0207 0.1988
vt 0.0131 0.9818 0.1988
vt 0.2885 0.9818 0.1988
vt 0.2885 0.0207 0.2108
vt 0.2885 0.9818 0.2108
vt 0.0131 0.9818 0.2108
vt 0.0131 0.0207 0.2108
vt 0.1731 0.0164 -0.4550
vt 0.1731 0.9799 -0.4550
vt 0.1376 0.9799 -0.4550
vt 0.1376 0.0164 -0.4550
vt 0.1359 0.0411 0.5000
vt 0.1359 0.9810 0.5000
vt 0.1907 0.9810 0.5000
vt 0.1907 0.0411 0.5000
vt 0.4540 0.0207 -0.0060
vt 0.4540 0.9818 -0.0060
vt 0.1651 0.9818 -0.0060
vt 0.1651 0.0207 -0.0060
vt 0.2242 0.0183 -0.5000
vt 0.2242 0.9817 -0.5000
vt 0.1887 0.9817 -0.5000
vt 0.1887 0.0183 -0.5000
vt 0.3021 0.0207 -0.1024
vt 0.0131 0.0207 -0.1024
vt 0.0131 0.9818 -0.1024
vt 0.3021 0.9818 -0.1024
vt 0.2244 0.0411 -0.5000
vt 0.2792 0.0411 -0.5000
vt 0.2792 0.9810 -0.5000
vt 0.2244 0.9810 -0.5000
vt 0.2789 0.0183 -0.5000
vt 0.2789 0.9817 -0.5000
vt 0.2434 0.9817 -0.5000
vt 0.2434 0.0183 -0.5000
vt 0.2646 0.0207 -0.3072
vt 0.0131 0.0207 -0.3072
vt 0.0131 0.9818 -0.3072
vt 0.2646 0.9818 -0.3072
vt 0.3789 0.0207 -0.2952
vt 0.3789 0.9818 -0.2952
vt 0.1274 0.9818 -0.2952
vt 0.1274 0.0207 -0.2952
vt 0.3367 0.0183 -0.3758
vt 0.3367 0.9817 -0.3758
vt 0.3012 0.9817 -0.3758
vt 0.3012 0.0183 -0.3758
vt 0.2689 0.9612 0.3750
vt 0.2294 0.9612 0.3750
vt 0.2294 0.0335 0.3750
vt 0.2689 0.0335 0.3750
vt 0.4512 0.4758 -3176324685925717100000000.0000
vt 0.4512 0.8878 -3176323821234588600000000.0000
vt 0.1530 0.8878 -3176324397695340900000000.0000
vt 0.1530 0.4758 -3176324974156093200000000.0000
vt 0.4532 0.0183 -0.5000
vt 0.4532 0.9817 -0.5000
vt 0.4176 0.9817 -0.5000
vt 0.4176 0.0183 -0.5000
vt 0.3021 0.0207 -0.5000
vt 0.3021 0.9818 -0.5000
vt 0.2788 0.9553 -0.5000
vt 0.2788 0.7195 -0.5000
vt 0.0131 0.9818 -0.5000
vt 0.0498 0.9553 -0.5000
vt 0.0131 0.0207 -0.5000
vt 0.0498 0.7195 -0.5000
vt 0.3651 0.7015 0.1377
vt 0.3651 0.3710 0.1377
vt 0.4623 0.3710 0.1377
vt 0.4623 0.7015 0.1377
vt 0.2036 0.8023 1.2403
vt 0.2036 0.5426 1.2403
vt 0.2984 0.5426 1.2403
vt 0.2984 0.8023 1.2403
vt 0.3006 0.7039 0.5189
vt 0.3006 0.4075 0.5189
vt 0.4002 0.4075 0.5189
vt 0.4002 0.7039 0.5189
vt 0.1010 0.7998 0.9439
vt 0.1010 0.5426 0.9439
vt 0.2006 0.5426 0.9439
vt 0.2006 0.7998 0.9439
vt 0.3021 0.0024 0.4880
vt -0.0000 0.0024 0.4880
vt -0.0000 1.0000 0.4880
vt 0.3021 1.0000 0.4880
vt 0.3021 0.0024 0.5000
vt 0.3021 1.0000 0.5000
vt -0.0000 1.0000 0.5000
vt -0.0000 0.0024 0.5000
vt 0.0676 0.0241 0.7061
vt 0.0676 0.9903 -0.7097
vt 0.0230 0.9903 -0.7049
vt 0.0230 0.0241 0.7108
vt 0.0472 0.6219 1.1562
vt 0.4568 0.6219 1.1562
vt 0.4568 0.6643 1.1562
vt 0.0472 0.6643 1.1562
vt 0.2743 1.0000 0.5000
vt 0.2743 0.0411 0.5000
vt 0.2245 0.0411 0.5000
vt 0.2244 1.0000 0.5000
vt 0.3776 0.9851 -0.0980
vt 0.0166 0.9851 -0.0980
vt 0.0166 0.9465 -0.0980
vt 0.3776 0.9465 -0.0980
vt 0.0000 -0.1637 -2.0487
vt 0.0000 1.0000 0.7071
# 162 texture coords

g shelf
usemtl bookshelf_mat
s 2
f 17/33/13 18/34/13 19/35/13 
f 17/33/13 19/35/13 20/36/13 
s 4
f 21/37/14 22/38/14 23/39/14 
f 21/37/14 23/39/14 24/40/14 
s 16
f 20/41/15 19/42/15 25/43/15 
f 20/41/15 25/43/15 26/44/15 
s 64
f 18/45/16 17/46/16 27/47/16 
f 18/45/16 27/47/16 28/48/16 
s off
f 26/49/14 25/50/14 29/51/14 
f 26/49/14 29/51/14 30/52/14 
f 28/53/14 27/54/14 31/55/14 
f 28/53/14 31/55/14 32/56/14 
f 30/57/16 29/58/16 33/59/16 
f 30/57/16 33/59/16 34/60/16 
f 32/61/15 31/62/15 24/63/15 
f 32/61/15 24/63/15 23/64/15 
s 4
f 35/65/14 36/66/14 37/67/14 
f 35/65/14 37/67/14 38/68/14 
f 39/69/14 40/70/14 41/71/17 
f 39/69/14 41/71/17 42/72/17 
s 2
f 43/73/13 44/74/13 45/75/13 
f 43/73/13 45/75/13 46/76/13 
s 4
f 47/77/14 48/78/14 49/79/14 
f 47/77/14 49/79/14 50/80/14 
s 8
f 50/81/18 49/82/18 45/83/18 
f 50/81/18 45/83/18 44/84/18 
s 2
f 51/85/18 52/86/18 53/87/18 
f 51/85/18 53/87/18 54/88/18 
s 4
f 55/89/19 56/90/19 57/91/19 
f 55/89/19 57/91/19 58/92/19 
s 8
f 51/93/14 54/94/14 56/95/14 
f 51/93/14 56/95/14 55/96/14 
s 2
f 59/97/18 40/98/18 39/99/18 
f 59/97/18 39/99/18 60/100/18 
s 4
f 61/101/19 62/102/19 63/103/19 
f 61/101/19 63/103/19 64/104/19 
s 8
f 59/105/14 60/106/14 62/107/14 
f 59/105/14 62/107/14 61/108/14 
s 2
f 65/109/18 66/110/18 67/111/18 
f 65/109/18 67/111/18 68/112/18 
s 4
f 69/113/19 70/114/19 42/115/17 
f 69/113/19 42/115/17 41/116/17 
s 8
f 65/117/14 68/118/14 70/119/14 
f 65/117/14 70/119/14 69/120/14 
s 2
f 71/121/18 72/122/18 73/123/18 
f 71/121/18 73/123/18 74/124/18 
s 4
f 75/125/19 76/126/19 77/127/19 
f 75/125/19 77/127/19 78/128/19 
s 8
f 71/129/14 74/130/14 76/131/14 
f 71/129/14 76/131/14 75/132/14 
s 2
f 79/133/18 36/134/18 35/135/18 
f 79/133/18 35/135/18 80/136/18 
s 4
f 81/137/19 82/138/19 83/139/19 
f 81/137/19 83/139/19 84/140/19 
s 8
f 79/141/14 80/142/14 85/143/14 
f 79/141/14 85/143/14 86/144/14 
s off
f 86/145/19 85/146/19 87/147/19 
f 86/145/19 87/147/19 88/148/19 
f 85/146/19 89/149/19 90/150/19 
f 85/146/19 90/150/19 87/147/19 
f 89/149/19 91/151/19 92/152/19 
f 89/149/19 92/152/19 90/150/19 
f 91/151/19 86/145/19 88/148/19 
f 91/151/19 88/148/19 92/152/19 
f 88/153/13 87/154/13 82/155/13 
f 88/153/13 82/155/13 81/156/13 
f 87/157/16 90/158/16 83/159/16 
f 87/157/16 83/159/16 82/160/16 
f 90/161/14 92/162/14 84/163/14 
f 90/161/14 84/163/14 83/164/14 
f 92/165/15 88/166/15 81/167/15 
f 92/165/15 81/167/15 84/168/15 
s 2
f 93/169/18 94/170/18 95/171/18 
f 93/169/18 95/171/18 96/172/18 
s 4
f 97/173/19 98/174/19 99/175/19 
f 97/173/19 99/175/19 100/176/19 
s 8
f 93/177/14 96/178/14 98/179/14 
f 93/177/14 98/179/14 97/180/14 
s 16
f 96/181/15 95/182/15 99/183/15 
f 96/181/15 99/183/15 98/184/15 
s 32
f 95/185/13 94/186/13 100/187/13 
f 95/185/13 100/187/13 99/188/13 
s 64
f 94/189/16 93/190/16 97/191/16 
f 94/189/16 97/191/16 100/192/16 
s 4
f 34/193/14 33/194/14 22/38/14 
f 34/193/14 22/38/14 21/37/14 
# 86 faces

