# 3ds Max Wavefront OBJ Exporter v0.97b - (c)2007 guruware
# File Created: 15.09.2011 15:56:40

mtllib balcony.mtl

#
# object balcony
#

v  0.000000 -0.000001 13.103525
v  12.767731 -0.000001 13.103522
v  12.767731 1.855890 13.103522
v  0.000000 1.855890 13.103523
v  0.000000 0.000000 0.010247
v  12.767731 -0.000001 0.010247
v  12.767731 1.855889 0.010247
v  0.000000 1.855890 0.010248
v  0.090610 1.852958 12.800513
v  12.686621 1.852958 12.800509
v  12.686622 6.785172 12.800513
v  0.090610 6.785172 12.800513
v  12.686621 1.852957 0.010247
v  12.686622 6.785169 0.010247
v  0.090610 6.785171 0.010248
v  0.090610 1.852958 0.010248
v  6.628355 2.083967 0.377934
v  6.560035 1.978817 0.530191
v  9.383152 1.978817 0.530191
v  9.314830 2.083967 0.377933
v  6.628355 12.352720 0.377934
v  6.560035 12.477344 0.530192
v  9.314831 12.352717 0.377934
v  9.383151 12.477343 0.530192
v  6.374405 1.873667 0.010247
v  9.568779 1.873667 0.010247
v  9.568781 1.873667 0.530191
v  6.374405 1.873667 0.530191
v  9.568781 12.791842 0.010247
v  9.568782 12.791843 0.530192
v  6.374405 12.791843 0.010248
v  6.374405 12.791843 0.530192
v  6.883069 11.803638 0.377934
v  9.021624 11.803636 0.377934
v  6.883070 4.618892 0.377934
v  9.021624 4.618892 0.377934
v  6.918983 11.741532 0.339504
v  6.918983 4.680993 0.339504
v  8.985710 4.680993 0.339504
v  8.985709 11.741534 0.339504
v  6.705279 7.021867 0.434539
v  6.642444 6.293666 0.434539
v  6.853686 6.293665 0.434539
v  6.853685 7.044182 0.434539
v  6.798243 7.195747 0.616399
v  6.705278 7.179161 0.616399
v  6.705278 7.018780 0.616399
v  6.798242 7.003949 0.616399
v  6.705278 7.182798 0.434539
v  6.853686 7.182809 0.434539
v  6.642444 7.631735 0.434539
v  6.853686 7.631734 0.434539
v  7.347689 7.200800 0.616399
v  7.347688 6.998895 0.616399
v  6.639024 7.646030 0.348496
v  6.639024 6.277091 0.348496
v  6.839226 7.646030 0.348496
v  6.839226 7.186944 0.348496
v  6.839227 6.277091 0.348496
v  6.839227 7.024045 0.348496
# 60 vertices

vn 0.000000 0.000001 1.000000
vn 0.000000 -0.000000 1.000000
vn 0.000000 0.000000 1.000000
vn -0.000000 -1.000000 -0.000000
vn 0.000000 -1.000000 -0.000000
vn 1.000000 0.000000 -0.000000
vn 0.000000 1.000000 0.000000
vn 0.000000 1.000000 -0.000000
vn -0.000000 1.000000 -0.000000
vn -1.000000 0.000000 -0.000000
vn 0.000000 -0.000001 1.000000
vn 1.000000 -0.000000 0.000000
vn 0.000000 0.822848 0.568261
vn 0.912361 -0.000000 0.409386
vn -0.000000 -0.773835 0.633387
vn -0.912359 -0.000000 0.409392
vn 1.000000 -0.000000 -0.000002
vn 1.000000 -0.000000 -0.000001
vn 1.000000 -0.000000 -0.000003
vn 0.000000 1.000000 -0.000003
vn -0.000000 1.000000 -0.000003
vn -0.000000 0.000000 -1.000000
vn -0.000000 -0.000000 1.000000
vn 0.030789 -0.993051 -0.113582
vn -1.000000 -0.000002 -0.000002
vn -0.068555 0.997000 -0.035947
vn 0.345470 -0.000002 -0.938430
vn -0.008975 -0.975772 -0.218605
vn -0.009171 0.997235 -0.073745
vn -0.999211 -0.000000 0.039719
vn 0.000002 0.986479 0.163889
vn 0.986171 0.000000 -0.165731
vn -0.000002 -0.981947 0.189157
vn 0.986172 0.000000 -0.165723
vn 0.986173 0.000001 -0.165719
vn -0.730622 -0.000000 0.682782
vn 0.000000 -0.526205 0.850357
vn 0.730619 -0.000000 0.682786
vn 0.000000 0.526219 0.850349
# 39 vertex normals

vt 0.000000 0.516059 0.000000
vt 1.000000 0.516059 0.000000
vt 1.000000 0.592924 0.000000
vt 0.000000 0.592924 0.000000
vt 0.849650 -0.415618 0.000000
vt 0.150350 -0.415618 0.000000
vt 0.150350 -0.490629 0.000000
vt 0.849650 -0.490629 0.000000
vt 1.554960 0.516059 0.000000
vt 1.554960 0.592924 0.000000
vt 1.162228 -0.489797 0.000000
vt 1.796745 -0.489797 0.000000
vt 1.796745 -0.429840 0.000000
vt 1.162228 -0.429840 0.000000
vt -0.563158 0.592924 0.000000
vt -0.563158 0.516059 0.000000
vt -0.000862 0.594785 0.000000
vt 1.002429 0.594785 0.000000
vt 1.002429 1.005071 0.000000
vt -0.000862 1.005071 0.000000
vt 1.506687 0.594785 0.000000
vt 1.506687 1.005071 0.000000
vt -0.506142 1.005071 0.000000
vt -0.506142 0.594785 0.000000
vt 0.026816 0.481787 0.000000
vt 0.022804 0.484181 0.000000
vt 0.022790 0.012510 0.000000
vt 0.026803 0.015634 0.000000
vt 0.979129 0.481759 0.000000
vt 0.982709 0.484153 0.000000
vt 0.979116 0.015607 0.000000
vt 0.982696 0.012482 0.000000
vt 0.002587 0.512944 0.000000
vt 0.997904 0.512936 0.000000
vt 0.997904 0.512882 0.000000
vt 0.002587 0.512889 0.000000
vt 0.997963 1.004158 0.000000
vt 0.997963 1.004104 0.000000
vt 0.999962 -0.004338 0.000000
vt 0.999977 0.497437 0.000000
vt 0.999867 0.497437 0.000000
vt 0.999852 -0.004338 0.000000
vt 0.000103 0.497466 0.000000
vt -0.000007 0.497466 0.000000
vt 0.926347 0.437085 0.000000
vt 0.926337 0.075565 0.000000
vt 0.211676 0.437108 0.000000
vt 0.211666 0.075589 0.000000
vt 0.004438 1.004166 0.000000
vt 0.999756 1.004158 0.000000
vt 0.999697 0.512936 0.000000
vt 0.004379 0.512944 0.000000
vt 0.007540 0.498770 0.000000
vt 0.007540 -0.005365 0.000000
vt 0.028470 0.017760 0.000000
vt 0.028470 0.481816 0.000000
vt 0.978735 0.481816 0.000000
vt 1.000007 0.498770 0.000000
vt 1.000007 -0.005365 0.000000
vt 0.978735 0.017760 0.000000
vt 0.915939 0.431820 0.000000
vt 0.222084 0.431843 0.000000
vt 0.222073 0.080853 0.000000
vt 0.915929 0.080831 0.000000
vt 0.482859 0.471824 0.000000
vt 0.419546 0.477752 0.000000
vt 0.419546 0.450065 0.000000
vt 0.484160 0.450065 0.000000
vt 0.491684 0.457153 0.000000
vt 0.490716 0.471824 0.000000
vt 0.482678 0.471824 0.000000
vt 0.481813 0.457153 0.000000
vt 0.490928 0.471824 0.000000
vt 0.490929 0.450065 0.000000
vt 0.530232 0.477752 0.000000
vt 0.530232 0.450065 0.000000
vt 0.491978 0.413337 0.000000
vt 0.481519 0.413337 0.000000
vt 0.531541 0.478292 0.000000
vt 0.418028 0.478292 0.000000
vt 0.531541 0.452347 0.000000
vt 0.491170 0.452347 0.000000
vt 0.418028 0.452347 0.000000
vt 0.482986 0.452347 0.000000
# 84 texture coords

g balcony
usemtl 24___Default
s 4
f 1/1/1 2/2/2 3/3/3 4/4/1 
s 8
f 5/5/4 6/6/4 2/7/4 1/8/5 
s 16
f 6/9/6 7/10/6 3/3/6 2/2/6 
s 32
f 7/11/7 8/12/7 4/13/8 3/14/9 
s 64
f 8/15/10 5/16/10 1/1/10 4/4/10 
s 4
f 9/17/2 10/18/11 11/19/2 12/20/2 
s 16
f 13/21/12 14/22/12 11/19/12 10/18/12 
s 64
f 15/23/10 16/24/10 9/17/10 12/20/10 
s off
f 17/25/13 18/26/13 19/27/13 20/28/13 
f 21/29/14 22/30/14 18/26/14 17/25/14 
f 23/31/15 24/32/15 22/30/15 21/29/15 
f 20/28/16 19/27/16 24/32/16 23/31/16 
s 8
f 25/33/4 26/34/4 27/35/4 28/36/4 
s 16
f 29/37/17 30/38/18 27/35/19 26/34/19 
s 32
f 29/39/20 31/40/7 32/41/8 30/42/21 
s 64
f 25/43/10 28/44/10 32/41/10 31/40/10 
s off
f 23/31/2 21/29/2 33/45/2 34/46/2 
f 17/25/2 35/47/2 33/45/2 21/29/2 
f 17/25/2 20/28/2 36/48/2 35/47/2 
f 23/31/2 34/46/2 36/48/2 20/28/2 
s 2
f 31/49/22 29/50/22 26/51/22 25/52/22 
s off
f 28/53/2 27/54/2 19/55/2 18/56/2 
f 28/53/2 18/56/2 22/57/2 32/58/2 
f 30/59/2 32/58/2 22/57/2 24/60/2 
f 30/59/23 24/60/23 19/55/23 27/54/23 
f 37/61/2 38/62/2 39/63/2 40/64/2 
f 41/65/2 42/66/2 43/67/2 44/68/2 
f 45/69/2 46/70/2 47/71/2 48/72/2 
f 44/68/24 48/72/24 47/71/24 41/65/24 
f 41/65/25 47/71/25 46/70/25 49/73/25 
f 49/73/26 46/70/26 45/69/26 50/74/26 
f 51/75/23 42/66/23 41/65/23 49/73/23 
f 52/76/3 51/75/3 49/73/3 50/74/3 
f 50/74/27 53/77/27 54/78/27 44/68/27 
f 44/68/28 54/78/28 48/72/28 
f 48/72/3 54/78/3 53/77/3 45/69/3 
f 45/69/29 53/77/29 50/74/29 
f 51/75/30 55/79/30 56/80/30 42/66/30 
f 52/76/31 57/81/31 55/79/31 51/75/31 
f 50/74/32 58/82/32 57/81/32 52/76/32 
f 42/66/33 56/80/33 59/83/33 43/67/33 
f 44/68/34 60/84/34 58/82/34 50/74/34 
f 43/67/35 59/83/35 60/84/35 44/68/35 
f 36/48/36 34/46/36 40/64/36 39/63/36 
f 34/46/37 33/45/37 37/61/37 40/64/37 
f 33/45/38 35/47/38 38/62/38 37/61/38 
f 35/47/39 36/48/39 39/63/39 38/62/39 
# 45 polygons - 2 triangles

