# 3ds Max Wavefront OBJ Exporter v0.97b - (c)2007 guruware
# File Created: 13.09.2011 14:36:25

mtllib door_garage.mtl

#
# object Box020
#

v  12.796100 11.946487 1.129474
v  12.796100 11.946487 7.090547
v  12.796100 0.000000 7.090547
v  12.796100 0.000000 1.129473
v  12.796100 12.781447 1.129473
v  0.022961 12.781448 1.129473
v  0.022961 12.781450 7.090546
v  12.796100 12.781447 7.090546
v  0.022961 0.000000 1.129473
v  0.022961 11.927783 1.129474
v  0.430690 11.932185 1.129474
v  0.430690 -0.000001 1.129473
v  12.357503 11.941537 1.129474
v  12.357503 11.941537 7.090547
v  12.357503 0.000000 7.090547
v  12.796100 12.642159 12.802856
v  0.022961 12.642161 12.802856
v  0.430690 11.932185 12.802856
v  12.357502 11.941536 12.802856
v  0.430690 11.932185 7.090547
v  12.357503 0.000000 1.129473
v  0.430690 0.000000 7.090547
v  0.022961 0.000000 7.090547
v  0.022961 11.927783 7.090547
v  0.022961 11.927783 12.802856
v  12.796100 11.946486 12.802856
v  12.448933 0.067290 3.325441
v  12.448936 0.237643 3.336809
v  0.106522 0.237646 3.336791
v  0.106520 0.067292 3.325424
v  12.448936 11.809764 2.363583
v  12.448936 11.949438 1.732178
v  0.263762 11.949443 1.732159
v  0.263762 11.809769 2.363564
v  12.448936 12.048676 0.019063
v  0.263762 12.048680 0.019044
v  12.448936 0.334297 2.352216
v  0.106522 0.334300 2.352200
v  12.448934 0.067360 2.340850
v  0.106520 0.067361 2.340833
# 40 vertices

vn 1.000000 0.000000 -0.000000
vn 0.000000 1.000000 -0.000000
vn 0.000000 1.000000 0.000000
vn 0.000000 0.000000 -1.000000
vn 0.000000 -0.000000 -1.000000
vn -0.000000 0.000000 1.000000
vn 0.000000 -0.000000 1.000000
vn 0.000784 -1.000000 0.000000
vn 0.000784 -1.000000 -0.000000
vn -1.000000 0.000000 -0.000000
vn 0.000000 -1.000000 -0.000000
vn -0.000001 -1.000000 0.000000
vn -0.000000 0.000000 -1.000000
vn -0.000001 -0.000000 1.000000
vn -0.000000 -0.000000 -1.000000
vn 0.000000 0.999703 0.024377
vn 0.010796 -0.999942 0.000000
vn 0.011287 -0.999936 -0.000000
vn -0.000001 -0.066583 0.997781
vn -0.000001 -0.066575 0.997781
vn -0.000001 0.625716 0.780051
vn 0.000000 0.990523 0.137349
vn -0.000001 0.622991 0.782229
vn 0.000000 0.998326 0.057831
vn -0.000001 -0.000990 1.000000
vn 1.000000 -0.000009 -0.000000
vn 0.000000 0.995216 0.097698
vn -1.000000 0.000007 0.000000
vn -0.000000 -1.000000 -0.000071
# 29 vertex normals

vt 1.000000 0.926219 0.000000
vt 1.000000 0.000000 0.000000
vt 1.000000 1.000000 0.000000
vt -0.000000 1.000000 0.000000
vt -0.000000 0.000000 0.000000
vt -0.000000 0.924755 0.000000
vt 0.048405 0.925100 0.000000
vt 0.048405 0.000000 0.000000
vt 0.950466 0.925832 0.000000
vt 0.950466 0.000000 0.000000
vt 1.000000 1.000402 0.000000
vt -0.000000 1.000402 0.000000
vt 0.950490 0.005265 0.000000
vt 0.950490 0.018593 0.000000
vt 0.048755 0.018593 0.000000
vt 0.048755 0.005265 0.000000
vt 0.950490 0.907229 0.000000
vt 0.950490 0.918157 0.000000
vt 0.048755 0.918157 0.000000
vt 0.048755 0.907229 0.000000
vt 0.950490 0.925921 0.000000
vt 0.048755 0.925921 0.000000
vt 0.950490 0.026155 0.000000
vt 0.048755 0.026155 0.000000
vt 0.950490 0.005270 0.000000
vt 0.048755 0.005270 0.000000
# 26 texture coords

g Box020
usemtl 19___Default
s 16
f 1/1/1 2/1/1 3/2/1 4/2/1 
s 32
f 5/3/2 6/4/2 7/4/2 8/3/3 
s off
f 9/5/4 10/6/4 11/7/4 12/8/4 
f 6/4/5 5/3/5 13/9/5 11/7/5 
f 3/2/6 2/1/6 14/9/6 15/10/6 
f 16/11/7 17/12/7 18/7/7 19/9/7 
s 1
f 20/7/8 11/7/8 13/9/9 14/9/9 
s 2
f 14/9/10 13/9/10 21/10/10 15/10/10 
s off
f 15/10/11 21/10/11 4/2/11 3/2/11 
f 12/8/12 22/8/12 23/5/12 9/5/12 
f 4/2/13 21/10/13 13/9/13 1/1/13 
s 64
f 9/5/10 23/5/10 24/6/10 10/6/10 
s off
f 23/5/14 22/8/14 20/7/14 24/6/14 
s 2
f 22/8/1 12/8/1 11/7/1 20/7/1 
s 1
f 24/6/10 7/4/10 6/4/10 10/6/10 
s off
f 11/7/5 10/6/5 6/4/5 
f 17/12/7 25/6/7 18/7/7 
s 1
f 1/1/1 5/3/1 8/3/1 2/1/1 
s off
f 5/3/15 1/1/15 13/9/15 
f 19/9/7 26/1/7 16/11/7 
f 8/3/16 7/4/16 17/12/16 16/11/16 
f 7/4/10 24/6/10 25/6/10 17/12/10 
f 24/6/17 20/7/17 18/7/17 25/6/17 
f 20/7/8 14/9/8 19/9/8 18/7/8 
f 14/9/18 2/1/18 26/1/18 19/9/18 
f 2/1/1 8/3/1 16/11/1 26/1/1 
s 1
f 27/13/19 28/14/19 29/15/20 30/16/20 
s 3
f 31/17/21 32/18/22 33/19/22 34/20/23 
s 2
f 32/18/22 35/21/24 36/22/24 33/19/22 
s 1
f 37/23/25 31/17/21 34/20/23 38/24/25 
s off
f 39/25/26 37/23/26 28/14/26 27/13/26 
f 37/23/27 38/24/27 29/15/27 28/14/27 
f 38/24/28 40/26/28 30/16/28 29/15/28 
f 40/26/29 39/25/29 27/13/29 30/16/29 
# 30 polygons - 4 triangles

