# 3ds Max Wavefront OBJ Exporter v0.97b - (c)2007 guruware
# File Created: 13.09.2011 16:03:16

mtllib door_normal.mtl

#
# object Box017
#

v  1.022313 0.246371 7.767784
v  0.747280 0.123184 10.984401
v  12.112152 0.123184 10.984401
v  11.837121 0.246371 7.767784
v  1.022313 12.276438 7.767784
v  0.747280 12.422437 10.984401
v  11.837119 12.276438 7.767784
v  12.112152 12.422437 10.984401
v  0.000000 0.000000 -0.000000
v  12.859433 0.000000 -0.000000
v  12.859433 0.000000 10.984401
v  0.000000 0.000000 10.984401
v  12.859433 12.790881 0.000001
v  12.859433 12.790880 10.984402
v  0.000000 12.790881 0.000001
v  0.000000 12.790880 10.984402
v  2.047704 11.633173 7.767784
v  10.656771 11.633174 7.767784
v  2.047704 1.406642 7.767784
v  10.656770 1.406643 7.767784
v  11.481846 5.863022 8.963622
v  10.968274 5.864967 8.963622
v  10.968275 5.054120 8.963622
v  11.699291 5.054120 8.963622
v  11.160138 6.128986 12.805635
v  11.160138 5.778198 12.805634
v  11.481846 5.824527 12.805634
v  11.481846 6.079862 12.805633
v  11.481846 6.041787 8.963622
v  10.968275 6.041799 8.963622
v  11.699290 6.540474 8.963622
v  10.968275 6.540474 8.963622
v  10.548119 5.768958 12.805635
v  10.548119 6.138227 12.805635
v  11.711123 5.035707 7.145870
v  11.711123 6.556354 7.145870
v  11.018313 6.556352 7.145870
v  11.018313 6.046391 7.145870
v  11.018313 5.035707 7.145870
v  11.018313 5.865440 7.145870
v  4.253085 5.720930 7.177070
v  4.253085 5.397495 7.177070
v  8.602886 5.397495 7.177070
v  8.602887 5.720929 7.177071
v  8.690499 5.746147 5.810071
v  4.165472 5.746147 5.810071
v  8.602885 5.256518 8.290318
v  4.253084 5.256518 8.290318
v  4.165472 5.231300 5.810071
v  8.690500 5.231300 5.810071
# 50 vertices

vn 0.000000 0.999268 0.038269
vn 0.996364 -0.000000 0.085193
vn 0.000000 -0.998972 0.045342
vn -0.996364 -0.000000 0.085193
vn 0.000000 -1.000000 0.000000
vn 1.000000 0.000000 -0.000000
vn 0.000000 1.000000 0.000000
vn -1.000000 0.000000 -0.000000
vn 0.000000 -0.000000 1.000000
vn -0.000000 -0.000000 1.000000
vn 0.000000 -0.000001 1.000000
vn 0.000000 0.000000 -1.000000
vn 0.000001 -0.000000 1.000000
vn 0.000000 -0.000004 1.000000
vn -0.000001 -0.000000 1.000000
vn 0.000005 -0.000000 1.000000
vn 0.053054 -0.998437 -0.017601
vn 0.058716 0.998117 -0.017737
vn 0.000002 0.000000 1.000000
vn 0.000001 0.000001 1.000000
vn -0.994074 0.000001 -0.108710
vn 0.015093 -0.999614 -0.023329
vn 0.000001 -0.000002 1.000000
vn 0.015092 0.999611 -0.023438
vn 0.999979 0.000001 0.006509
vn -0.000001 0.999962 0.008735
vn -0.999621 -0.000000 -0.027517
vn 0.000001 -0.999949 0.010129
vn -0.999621 0.000002 -0.027517
vn 0.000000 0.661199 0.750211
vn -0.000000 0.661197 0.750212
vn -0.000000 -0.000002 1.000000
vn 0.000000 0.999830 0.018444
vn -0.000000 -0.999948 0.010167
vn 0.997953 -0.000003 0.063960
vn -0.967758 0.249888 0.031644
vn 0.000000 0.992077 0.125633
vn 0.997952 0.000001 0.063961
vn -0.997953 -0.000000 0.063960
vn 0.967758 0.249885 0.031645
vn -0.997952 0.000000 0.063960
# 41 vertex normals

vt 0.071352 0.013626 0.000000
vt 0.066603 0.009614 0.000000
vt 0.938177 0.009600 0.000000
vt 0.931981 0.013613 0.000000
vt 0.071407 0.969705 0.000000
vt 0.066659 0.973286 0.000000
vt 0.932036 0.969692 0.000000
vt 0.938233 0.973272 0.000000
vt 0.006353 0.000095 0.000000
vt 0.997904 0.000080 0.000000
vt 0.997904 -0.000030 0.000000
vt 0.006353 -0.000015 0.000000
vt 0.997963 0.999954 0.000000
vt 0.997963 0.999844 0.000000
vt 0.006412 0.999970 0.000000
vt 0.006412 0.999860 0.000000
vt 0.175089 0.909390 0.000000
vt 0.822518 0.909380 0.000000
vt 0.175043 0.109974 0.000000
vt 0.822471 0.109963 0.000000
vt 0.008204 0.999970 0.000000
vt 0.999756 0.999954 0.000000
vt 0.999697 0.000080 0.000000
vt 0.008146 0.000095 0.000000
vt 0.903116 0.463106 0.000000
vt 0.868305 0.463259 0.000000
vt 0.868304 0.399718 0.000000
vt 0.917854 0.399107 0.000000
vt 0.866612 0.480182 0.000000
vt 0.866612 0.460294 0.000000
vt 0.901422 0.460075 0.000000
vt 0.901423 0.480180 0.000000
vt 0.903117 0.477182 0.000000
vt 0.868306 0.477183 0.000000
vt 0.917817 0.514012 0.000000
vt 0.868306 0.513630 0.000000
vt 0.836376 0.460294 0.000000
vt 0.836376 0.480182 0.000000
vt 0.917856 0.514610 0.000000
vt 0.868306 0.514004 0.000000
vt 0.340915 0.447239 0.000000
vt 0.340912 0.421955 0.000000
vt 0.668031 0.421942 0.000000
vt 0.668033 0.447225 0.000000
vt 0.668031 0.422641 0.000000
vt 0.668028 0.410615 0.000000
vt 0.340910 0.410935 0.000000
vt 0.668028 0.410922 0.000000
# 48 texture coords

g Box017
usemtl 05___Default
s off
f 1/1/1 2/2/1 3/3/1 4/4/1 
f 5/5/2 6/6/2 2/2/2 1/1/2 
f 7/7/3 8/8/3 6/6/3 5/5/3 
f 4/4/4 3/3/4 8/8/4 7/7/4 
s 8
f 9/9/5 10/10/5 11/11/5 12/12/5 
s 16
f 13/13/6 14/14/6 11/11/6 10/10/6 
s 32
f 13/13/7 15/15/7 16/16/7 14/14/7 
s 64
f 9/9/8 12/12/8 16/16/8 15/15/8 
s off
f 7/7/9 5/5/9 17/17/9 18/18/9 
f 1/1/10 19/19/10 17/17/10 5/5/10 
f 1/1/11 4/4/11 20/20/11 19/19/11 
f 7/7/9 18/18/9 20/20/9 4/4/9 
s 2
f 15/21/12 13/22/12 10/23/12 9/24/12 
s off
f 12/12/9 11/11/9 3/3/9 2/2/9 
f 12/12/13 2/2/13 6/6/13 16/16/13 
f 14/14/14 16/16/14 6/6/14 8/8/14 
f 14/14/15 8/8/15 3/3/15 11/11/15 
f 21/25/9 22/26/9 23/27/9 24/28/9 
f 25/29/16 26/30/16 27/31/16 28/32/16 
f 22/26/17 21/25/17 27/31/17 26/30/17 
f 21/25/6 29/33/6 28/32/6 27/31/6 
f 29/33/18 30/34/18 25/29/18 28/32/18 
f 31/35/19 29/33/19 21/25/19 24/28/19 
f 32/36/20 30/34/20 29/33/20 31/35/20 
f 30/34/21 22/26/21 33/37/21 34/38/21 
f 22/26/22 26/30/22 33/37/22 
f 26/30/23 25/29/23 34/38/23 33/37/23 
f 25/29/24 30/34/24 34/38/24 
f 31/35/25 24/28/25 35/28/25 36/39/25 
f 32/36/26 31/35/26 36/39/26 37/40/26 
f 30/34/27 32/36/27 37/40/27 38/34/27 
f 24/28/28 23/27/28 39/27/28 35/28/28 
f 22/26/29 30/34/29 38/34/29 40/26/29 
f 23/27/27 22/26/27 40/26/27 39/27/27 
s 1
f 41/41/10 42/42/30 43/43/31 44/44/32 
s off
f 41/41/33 44/44/33 45/45/33 46/41/33 
f 47/46/34 48/47/34 49/47/34 50/48/34 
f 44/44/35 43/43/35 45/45/35 
f 48/47/36 42/42/36 49/47/36 
s 1
f 48/47/37 47/46/37 43/43/31 42/42/30 
s off
f 43/43/38 50/48/38 45/45/38 
f 42/42/39 41/41/39 46/41/39 
f 43/43/40 47/46/40 50/48/40 
f 42/42/41 46/41/41 49/47/41 
f 17/17/9 19/19/9 20/20/9 18/18/9 
# 37 polygons - 8 triangles

