# 3ds Max Wavefront OBJ Exporter v0.97b - (c)2007 guruware
# File Created: 13.09.2011 16:04:11

mtllib door_normal_panels.mtl

#
# object Box018
#

v  0.809395 0.246508 7.767784
v  0.535582 0.123254 10.984402
v  12.189619 0.123254 10.984401
v  11.915807 0.246508 7.767784
v  0.809395 12.404457 7.767784
v  0.535582 12.550536 10.984402
v  11.915807 12.404459 7.767784
v  12.189619 12.550536 10.984402
v  0.000000 0.000000 -0.000000
v  12.802386 0.000000 -0.000000
v  12.802386 0.000000 10.984401
v  0.000000 0.000000 10.984401
v  12.802386 12.798023 0.000001
v  12.802386 12.798022 10.984402
v  0.000000 12.798023 0.000001
v  0.000000 12.798022 10.984402
v  10.533294 11.734164 6.284822
v  10.533294 5.707708 6.284822
v  10.906047 5.519191 7.767784
v  10.906047 11.922681 7.767784
v  2.006590 11.922683 7.767784
v  2.379344 11.734164 6.284822
v  2.379344 5.707707 6.284822
v  2.006590 5.519190 7.767784
v  2.379344 5.706035 3.872901
v  10.533294 5.706036 3.872902
v  10.533294 11.734685 3.872902
v  2.379344 11.734683 3.872902
v  2.379344 11.734683 6.284822
v  2.379344 5.706035 6.284822
v  10.533294 5.706037 6.284822
v  10.533294 11.734683 6.284822
v  11.575373 6.458296 8.963622
v  11.064080 6.460242 8.963622
v  11.064080 5.648942 8.963622
v  11.791853 5.648942 8.963622
v  11.255092 6.724408 12.805635
v  11.255092 6.373424 12.805633
v  11.575373 6.419780 12.805634
v  11.575373 6.675256 12.805634
v  11.575373 6.637160 8.963622
v  11.064080 6.637172 8.963622
v  11.791853 7.136127 8.963622
v  11.064080 7.136127 8.963622
v  10.645789 6.364179 12.805635
v  10.645789 6.733654 12.805635
v  11.803634 5.630520 7.145870
v  11.803634 7.152014 7.145870
v  11.113898 7.152014 7.145870
v  11.113898 6.641768 7.145870
v  11.113898 5.630519 7.145870
v  11.113898 6.460716 7.145870
# 52 vertices

vn 0.000000 0.999267 0.038290
vn 0.996396 -0.000000 0.084818
vn 0.000000 -0.998970 0.045367
vn -0.996396 -0.000000 0.084817
vn 0.000000 -1.000000 0.000000
vn 1.000000 0.000000 -0.000000
vn 0.000000 1.000000 0.000000
vn -1.000000 0.000000 -0.000000
vn -0.969832 -0.000000 0.243774
vn -0.000000 -0.992017 0.126107
vn 0.969832 -0.000000 0.243775
vn -0.000000 0.992017 0.126107
vn 0.000000 -0.000000 1.000000
vn -0.000000 -0.000000 1.000000
vn 0.000000 0.000000 -1.000000
vn 0.000000 -0.000006 1.000000
vn -0.000001 -0.000000 1.000000
vn -0.000000 1.000000 -0.000000
vn 0.000000 -1.000000 -0.000000
vn -0.000000 -0.000005 1.000000
vn 0.053322 -0.998422 -0.017611
vn 0.059009 0.998100 -0.017747
vn -0.994125 0.000000 -0.108233
vn 0.015168 -0.999613 -0.023342
vn 0.000003 -0.000004 1.000000
vn 0.015169 0.999610 -0.023451
vn 0.999979 -0.000000 0.006481
vn -0.000001 0.999962 0.008740
vn -0.999625 0.000000 -0.027396
vn 0.000001 -0.999949 0.010134
vn -0.999625 -0.000000 -0.027396
# 31 vertex normals

vt 0.063222 0.036211 0.000000
vt 0.053424 0.026580 0.000000
vt 0.939098 0.026580 0.000000
vt 0.930749 0.036211 0.000000
vt 0.063222 0.959716 0.000000
vt 0.053424 0.971131 0.000000
vt 0.930749 0.959716 0.000000
vt 0.939098 0.971131 0.000000
vt 0.000000 0.000000 0.000000
vt 1.000000 0.000000 0.000000
vt 1.000000 1.000000 0.000000
vt 0.000000 1.000000 0.000000
vt 0.816965 0.909429 0.000000
vt 0.816965 0.440189 0.000000
vt 0.830146 0.425459 0.000000
vt 0.830146 0.924159 0.000000
vt 0.161082 0.924159 0.000000
vt 0.177160 0.909429 0.000000
vt 0.177160 0.440189 0.000000
vt 0.161082 0.425459 0.000000
vt 0.177160 0.440058 0.000000
vt 0.816965 0.440058 0.000000
vt 0.816965 0.909470 0.000000
vt 0.177160 0.909470 0.000000
vt 0.897116 0.508537 0.000000
vt 0.862305 0.508690 0.000000
vt 0.862304 0.445149 0.000000
vt 0.911854 0.444538 0.000000
vt 0.860612 0.547899 0.000000
vt 0.860611 0.505725 0.000000
vt 0.895422 0.505506 0.000000
vt 0.895423 0.547898 0.000000
vt 0.897116 0.544900 0.000000
vt 0.862305 0.544901 0.000000
vt 0.911817 0.559443 0.000000
vt 0.862306 0.559061 0.000000
vt 0.830376 0.505725 0.000000
vt 0.830376 0.547900 0.000000
vt 0.911856 0.560040 0.000000
vt 0.862306 0.559435 0.000000
# 40 texture coords

g Box018
usemtl 07___Default
s off
f 1/1/1 2/2/1 3/3/1 4/4/1 
f 5/5/2 6/6/2 2/2/2 1/1/2 
f 7/7/3 8/8/3 6/6/3 5/5/3 
f 4/4/4 3/3/4 8/8/4 7/7/4 
s 8
f 9/9/5 10/10/5 11/10/5 12/9/5 
s 16
f 13/11/6 14/11/6 11/10/6 10/10/6 
s 32
f 13/11/7 15/12/7 16/12/7 14/11/7 
s 64
f 9/9/8 12/9/8 16/12/8 15/12/8 
s off
f 17/13/9 18/14/9 19/15/9 20/16/9 
f 20/16/10 21/17/10 22/18/10 17/13/10 
f 23/19/11 22/18/11 21/17/11 24/20/11 
f 24/20/12 19/15/12 18/14/12 23/19/12 
f 7/7/13 5/5/13 21/17/13 20/16/13 
f 1/1/14 24/20/14 21/17/14 5/5/14 
f 1/1/13 4/4/13 19/15/13 24/20/13 
f 7/7/14 20/16/14 19/15/14 4/4/14 
s 2
f 15/12/15 13/11/15 10/10/15 9/9/15 
s off
f 12/9/16 11/10/16 3/3/16 2/2/16 
f 12/9/17 2/2/17 6/6/17 16/12/17 
f 14/11/13 16/12/13 6/6/13 8/8/13 
f 14/11/13 8/8/13 3/3/13 11/10/13 
f 25/21/14 26/22/14 27/23/14 28/24/14 
f 29/24/6 30/21/6 25/21/6 28/24/6 
f 30/21/18 31/22/18 26/22/18 25/21/18 
f 31/22/8 32/23/8 27/23/8 26/22/8 
f 32/23/19 29/24/19 28/24/19 27/23/19 
f 33/25/13 34/26/13 35/27/13 36/28/13 
f 37/29/20 38/30/20 39/31/20 40/32/20 
f 34/26/21 33/25/21 39/31/21 38/30/21 
f 33/25/6 41/33/6 40/32/6 39/31/6 
f 41/33/22 42/34/22 37/29/22 40/32/22 
f 43/35/13 41/33/13 33/25/13 36/28/13 
f 44/36/13 42/34/13 41/33/13 43/35/13 
f 42/34/23 34/26/23 45/37/23 46/38/23 
f 34/26/24 38/30/24 45/37/24 
f 38/30/25 37/29/25 46/38/25 45/37/25 
f 37/29/26 42/34/26 46/38/26 
f 43/35/27 36/28/27 47/28/27 48/39/27 
f 44/36/28 43/35/28 48/39/28 49/40/28 
f 42/34/29 44/36/29 49/40/29 50/34/29 
f 36/28/30 35/27/30 51/27/30 47/28/30 
f 34/26/31 42/34/31 50/34/31 52/26/31 
f 35/27/29 34/26/29 52/26/29 51/27/29 
# 41 polygons - 2 triangles

