# 3ds Max Wavefront OBJ Exporter v0.97b - (c)2007 guruware
# File Created: 13.09.2011 16:07:10

mtllib gutter.mtl

#
# object Object001
#

v  -0.000001 12.793150 10.601366
v  -0.000001 0.248966 0.000000
v  -0.000001 0.248974 10.601371
v  -0.000001 12.793150 12.809699
v  12.791789 -0.033091 10.601369
v  12.791789 -0.020457 0.000000
v  12.791788 12.793150 12.809707
v  12.791788 12.793150 10.601363
# 8 vertices

vn -1.000000 0.000000 -0.000000
vn -0.021551 -0.999768 -0.000595
vn 0.000000 1.000000 0.000000
vn -0.001891 -0.171508 0.985181
vn 0.006755 0.641441 -0.767143
vn 1.000000 0.000000 0.000000
# 6 vertex normals

vt 0.061822 0.438783 0.000000
vt 0.272252 0.696605 0.000000
vt 0.003602 0.696605 0.000000
vt 0.003602 0.438783 0.000000
vt 0.000495 0.712229 0.000000
vt 1.000202 0.712229 0.000000
vt 1.000202 0.996247 0.000000
vt 0.000495 0.996247 0.000000
vt 1.000202 0.432205 0.000000
vt 0.000495 0.432205 0.000000
vt 0.000495 0.377294 0.000000
vt 1.000202 0.377294 0.000000
vt 1.000202 0.012066 0.000000
vt 0.000495 0.012066 0.000000
vt 1.000358 0.690463 0.000000
vt 0.735986 0.690229 0.000000
vt 0.950136 0.452560 0.000000
vt 1.000358 0.452560 0.000000
# 18 texture coords

g Object001
usemtl 11___Default
s off
f 1/1/1 2/2/1 3/3/1 4/4/1 
f 5/5/2 3/6/2 2/7/2 6/8/2 
f 4/9/3 7/10/3 8/11/3 1/12/3 
f 5/5/4 7/10/4 4/9/4 3/6/4 
f 2/13/5 1/12/5 8/11/5 6/14/5 
f 5/15/6 6/16/6 8/17/6 7/18/6 
# 6 polygons

