# 3ds Max Wavefront OBJ Exporter v0.97b - (c)2007 guruware
# File Created: 13.09.2011 16:08:28

mtllib gutter_corner.mtl

#
# object Box002
#

v  10.585822 0.000003 11.686269
v  10.585830 0.000001 6.393965
v  12.787277 12.808820 6.393964
v  12.785849 12.807197 12.787979
v  0.017522 0.000003 11.686266
v  0.017522 0.000001 6.393964
v  10.585830 12.808820 6.393964
v  10.585845 12.808825 11.686278
v  0.017521 12.808825 12.788689
v  0.017521 12.808825 11.686264
v  10.585829 0.000000 0.000001
v  0.017522 0.000001 1.103642
v  0.017522 0.000000 0.000001
v  10.585830 12.808820 1.103642
v  -0.000000 12.788951 1.103642
v  12.787277 12.808820 0.000001
v  -0.000000 12.788949 0.000001
# 17 vertices

vn 0.985553 -0.169366 0.000051
vn 0.985550 -0.169386 0.000001
vn 0.985554 -0.169360 0.000067
vn 0.985562 -0.169316 0.000177
vn 0.000000 -1.000000 0.000000
vn -0.000000 -1.000000 0.000000
vn 0.000077 1.000000 0.000031
vn 0.000000 1.000000 -0.000001
vn 0.000260 0.986325 -0.164810
vn 0.000470 1.000000 0.000541
vn -0.771343 0.636420 0.000002
vn -0.771343 0.636420 0.000001
vn -0.771343 0.636420 0.000000
vn 0.000025 -0.085730 0.996318
vn -0.000000 -0.085750 0.996317
vn 0.000022 -0.085732 0.996318
vn 0.000044 -0.085714 0.996320
vn 0.000001 0.831223 -0.555939
vn 0.000008 1.000000 0.000081
vn 0.000001 0.381865 -0.924218
vn -1.000000 -0.000000 -0.000000
vn 0.000000 -1.000000 0.000001
vn -0.000000 0.000000 1.000000
vn -0.000890 0.999998 -0.001692
vn -0.000460 0.999999 -0.000917
vn -0.001856 0.999998 -0.000206
vn -0.001877 0.999998 -0.000001
vn 0.000000 -0.000000 -1.000000
vn -0.999999 -0.001370 -0.000000
vn 0.985550 -0.169386 -0.000000
# 30 vertex normals

vt 0.995317 0.705168 0.000000
vt 0.658999 0.705168 0.000000
vt 0.658999 0.433145 0.000000
vt 0.995317 0.433145 0.000000
vt 0.299134 0.993147 0.000000
vt 0.299135 0.698939 0.000000
vt 0.620315 0.698939 0.000000
vt 0.620316 0.993147 0.000000
vt 0.656551 0.371602 0.000000
vt 0.992869 0.371602 0.000000
vt 0.412396 0.380864 0.000000
vt 0.704191 0.380864 0.000000
vt 0.704191 0.001266 0.000000
vt 1.282805 0.433145 0.000000
vt 1.282805 0.705168 0.000000
vt 1.281747 0.371602 0.000000
vt 1.284195 0.433145 0.000000
vt 0.275129 0.380635 0.000000
vt 0.002665 -0.006416 0.000000
vt 0.002664 0.380634 0.000000
vt 0.988475 0.427297 0.000000
vt 1.265323 0.705586 0.000000
vt 0.988474 0.705585 0.000000
vt 0.930805 0.427297 0.000000
vt 1.008354 0.993147 0.000000
vt 0.941376 0.698939 0.000000
vt 1.008354 0.698939 0.000000
vt 0.505843 -0.000582 0.000000
vt 0.886212 0.389943 0.000000
vt 0.505837 0.389943 0.000000
vt 0.299446 0.371601 0.000000
vt 0.301894 0.433145 0.000000
vt -0.001050 0.433145 0.000000
vt -0.003498 0.371601 0.000000
vt 0.301894 0.705168 0.000000
vt -0.001627 0.705168 0.000000
vt -0.001627 0.433145 0.000000
vt 1.282489 0.705804 0.000000
vt 1.223651 0.705804 0.000000
vt 1.223651 0.432045 0.000000
vt 1.282489 0.432045 0.000000
vt 0.995876 0.380864 0.000000
vt 0.995876 0.001266 0.000000
# 43 texture coords

g Box002
usemtl 11___Default
s 1
f 1/1/1 2/2/2 3/3/3 4/4/4 
s 2
f 1/5/5 5/6/5 6/7/6 2/8/5 
s 4
f 3/3/7 7/9/8 8/10/9 4/4/10 
s 1
f 8/11/11 7/12/12 6/13/13 
s 8
f 9/14/14 5/15/15 1/1/16 4/4/17 
s 4
f 8/10/9 10/16/18 9/17/19 4/4/10 
f 8/18/9 6/19/20 10/20/18 
s 16
f 10/21/21 6/22/21 5/23/21 9/24/21 
s 2
f 11/25/6 12/26/6 13/27/22 
s 8
f 12/28/23 14/29/23 15/30/23 
s 4
f 14/31/24 16/32/25 17/33/26 15/34/27 
s 8
f 16/32/28 11/35/28 13/36/28 17/37/28 
s 16
f 13/38/29 12/39/29 15/40/29 17/41/29 
s 4
f 14/31/24 7/9/8 3/3/7 16/32/25 
s 1
f 7/12/12 14/42/13 12/43/13 6/13/13 
f 16/32/30 3/3/3 2/2/2 11/35/30 
s 2
f 11/25/6 2/8/5 6/7/6 12/26/6 
# 13 polygons - 4 triangles

