# 3ds Max Wavefront OBJ Exporter v0.97b - (c)2007 guruware
# File Created: 13.09.2011 14:34:39

mtllib window_big_simple.mtl

#
# object raam02
#

v  12.801416 12.801089 4.880967
v  12.599837 12.483443 4.880967
v  12.599835 1.053318 4.880967
v  12.801414 0.735669 4.880967
v  8.906482 12.801089 4.880968
v  9.000592 12.483441 4.880968
v  0.000000 0.735669 4.880968
v  0.201579 1.053318 4.880969
v  0.201579 12.483441 4.880970
v  0.000002 12.801091 4.880970
v  8.906481 0.735669 4.880968
v  8.812372 1.053318 4.880968
v  8.906479 0.735669 -0.000001
v  8.906482 0.401419 -0.000001
v  -0.000000 0.401420 0.000000
v  -0.000000 0.735669 0.000000
v  8.812375 12.483441 4.880968
v  9.000592 1.053318 4.880968
v  12.801414 0.735669 -0.000001
v  12.801414 0.401419 -0.000001
v  9.065686 12.377826 3.316362
v  12.483298 12.377825 3.316362
v  12.599835 12.483443 4.880967
v  8.812373 1.053319 4.880968
v  8.747278 1.158935 3.316362
v  0.318119 1.158935 3.316363
v  0.318119 12.377825 3.316364
v  8.747276 12.377826 3.316362
v  9.000589 1.053319 4.880968
v  12.599835 1.053320 4.880967
v  12.483296 1.158936 3.316362
v  9.065686 1.158935 3.316362
v  8.906481 0.735670 4.880968
v  8.906481 0.332249 12.805465
v  12.801416 0.332249 12.805465
v  12.801414 0.735670 4.880967
v  0.000000 0.332249 12.805463
v  8.906484 0.000001 8.416146
v  12.801416 -0.000000 8.416149
v  -0.000002 0.000000 8.416143
v  8.906481 0.401420 -0.000001
v  12.801416 0.401421 -0.000001
v  0.000001 12.801091 0.000001
v  8.906482 12.801091 -0.000000
v  8.906482 12.801091 4.880968
v  12.801416 12.801093 4.880967
v  12.801416 12.801091 -0.000001
v  12.801414 0.735670 -0.000001
v  8.906484 0.735670 -0.000001
v  8.747278 1.158934 3.316362
v  8.747278 12.377825 3.316363
v  0.318118 1.199301 3.316364
v  8.747275 1.199303 3.316362
v  9.065686 10.770518 3.316362
v  12.483296 10.770517 3.316362
v  9.115565 1.253196 2.052257
v  12.433418 1.253196 2.052257
v  12.433420 10.580864 2.052257
v  9.115564 10.580864 2.052257
v  12.483298 1.158689 3.316362
v  9.065684 1.158690 3.316362
# 61 vertices

vn 0.000001 0.000000 1.000000
vn 0.000000 0.000001 1.000000
vn -0.000001 -0.000000 1.000000
vn 0.000000 -0.000001 1.000000
vn -0.000000 0.000000 -1.000000
vn 0.000000 -0.000000 1.000000
vn 0.000000 -0.997729 0.067350
vn -0.000000 0.997730 0.067350
vn -0.000000 0.997729 0.067350
vn 0.000000 0.998707 0.050842
vn -0.000000 0.998707 0.050842
vn -0.000000 -0.997147 0.075479
vn 0.000000 -0.997147 0.075479
vn 0.000000 -0.998864 -0.047642
vn -0.000000 -0.998864 -0.047642
vn -1.000000 0.000000 0.000000
vn -1.000000 0.000002 0.000000
vn -0.000000 1.000000 -0.000000
vn -0.000000 1.000000 0.000000
vn 0.000000 1.000000 0.000000
vn 1.000000 -0.000000 -0.000000
vn 1.000000 -0.000000 0.000000
vn 1.000000 0.000002 0.000000
vn -0.999136 0.000000 0.041568
vn -0.999136 0.000000 0.041570
vn -0.999136 -0.000000 0.041570
vn -0.997238 0.000000 0.074278
vn -0.997238 -0.000000 0.074278
vn 0.997237 -0.000000 0.074280
vn 0.999136 -0.000000 0.041570
vn 0.999136 -0.000000 0.041568
vn -0.999222 0.000000 0.039427
vn -0.000000 -0.988932 0.148370
vn 0.999222 -0.000000 0.039428
vn 0.000000 0.997217 0.074554
# 35 vertex normals

vt -0.000000 1.000000 0.000000
vt 0.036926 0.949680 0.000000
vt 0.036926 0.066633 0.000000
vt -0.000000 0.057469 0.000000
vt 0.373548 1.000000 0.000000
vt 0.356780 0.949680 0.000000
vt 1.000000 0.057469 0.000000
vt 0.970838 0.066633 0.000000
vt 0.970838 0.949680 0.000000
vt 1.000000 1.000000 0.000000
vt 0.373548 0.057469 0.000000
vt 0.390315 0.066633 0.000000
vt 0.373547 0.031358 0.000000
vt 1.000000 0.031358 0.000000
vt 0.390315 0.949680 0.000000
vt 0.356780 0.066633 0.000000
vt -0.000000 0.031358 0.000000
vt 0.351695 0.918242 0.000000
vt 0.051679 0.918242 0.000000
vt 0.404717 0.074218 0.000000
vt 0.952791 0.074883 0.000000
vt 0.952791 0.918242 0.000000
vt 0.404816 0.918242 0.000000
vt 0.051679 0.074884 0.000000
vt 0.351695 0.074884 0.000000
vt 0.373547 0.057469 0.000000
vt 0.373547 0.025955 0.000000
vt -0.000000 0.025955 0.000000
vt 1.000000 0.025955 0.000000
vt 0.373547 0.000000 0.000000
vt -0.000000 0.000000 0.000000
vt 1.000000 -0.000000 0.000000
vt 0.404816 0.074884 0.000000
vt 0.952792 0.078037 0.000000
vt 0.404816 0.078037 0.000000
vt 0.351695 0.797416 0.000000
vt 0.051679 0.797416 0.000000
vt 0.348980 0.077667 0.000000
vt 0.054714 0.077753 0.000000
vt 0.054394 0.794613 0.000000
vt 0.348661 0.794527 0.000000
vt 0.051679 0.074864 0.000000
vt 0.351695 0.074864 0.000000
# 43 texture coords

g raam02
usemtl 09___Default
s off
f 1/1/1 2/2/1 3/3/1 4/4/1 
f 5/5/2 6/6/2 2/2/2 1/1/2 
f 7/7/3 8/8/3 9/9/3 10/10/3 
f 11/11/4 12/12/4 8/8/4 7/7/4 
f 13/11/5 14/13/5 15/14/5 16/7/5 
f 5/5/2 10/10/2 9/9/2 17/15/2 
f 11/11/4 4/4/4 3/3/4 18/16/4 
f 19/4/5 20/17/5 14/13/5 13/11/5 
f 5/5/2 17/15/2 6/6/2 
f 11/11/6 18/16/6 12/12/6 
s 2
f 6/6/6 17/15/6 12/12/6 18/16/6 
s off
f 6/6/7 21/18/7 22/19/7 23/2/7 
f 24/12/8 25/20/8 26/21/8 8/8/8 
f 17/15/7 9/9/7 27/22/7 28/23/7 
f 29/16/9 30/3/9 31/24/9 32/25/9 
f 33/26/10 34/27/10 35/28/10 36/4/10 
f 7/7/11 37/29/11 34/27/11 33/26/11 
f 34/27/12 38/30/12 39/31/12 35/28/12 
f 37/29/13 40/32/13 38/30/13 34/27/13 
f 41/13/14 38/30/14 40/32/14 15/14/14 
f 42/17/15 39/31/15 38/30/15 41/13/15 
s 32
f 16/7/16 7/7/16 10/10/16 43/10/16 
s off
f 7/7/16 16/7/16 15/14/16 
f 7/7/17 15/14/17 40/32/17 37/29/17 
s 16
f 44/5/18 45/5/19 46/1/18 47/1/18 
f 43/10/20 10/10/20 45/5/19 44/5/18 
s 8
f 47/1/21 46/1/21 36/4/22 48/4/22 
s off
f 48/4/23 36/4/23 42/17/23 
f 42/17/23 36/4/23 35/28/23 39/31/23 
s 2
f 48/4/5 49/26/5 44/5/5 47/1/5 
f 16/7/5 43/10/5 44/5/5 49/26/5 
s 5
f 50/33/24 12/12/24 17/15/25 51/23/26 
s 1
f 23/2/27 22/19/27 31/24/27 30/3/28 
f 8/8/29 26/21/29 27/22/29 9/9/29 
s 3
f 29/16/30 32/25/30 21/18/31 6/6/31 
s off
f 28/23/6 27/22/6 52/34/6 53/35/6 
f 21/18/6 54/36/6 55/37/6 22/19/6 
f 56/38/6 57/39/6 58/40/6 59/41/6 
f 60/42/32 55/37/32 58/40/32 57/39/32 
f 55/37/33 54/36/33 59/41/33 58/40/33 
f 54/36/34 61/43/34 56/38/34 59/41/34 
f 61/43/35 60/42/35 57/39/35 56/38/35 
# 38 polygons - 4 triangles

