# 3ds Max Wavefront OBJ Exporter v0.97b - (c)2007 guruware
# File Created: 13.09.2011 14:33:12

mtllib window_big_complex.mtl

#
# object raam01
#

v  12.790881 0.737265 4.882295
v  12.790883 12.813837 4.882295
v  12.589617 12.495498 4.882295
v  12.589615 1.055604 4.882295
v  0.000002 12.813840 4.882298
v  0.201266 12.495499 4.882298
v  0.000000 0.737265 4.882297
v  0.201263 1.055604 4.882297
v  12.790881 0.737265 -0.000001
v  12.790881 0.402290 -0.000001
v  -0.000000 0.402290 0.000000
v  -0.000000 0.737266 0.000000
v  12.473259 8.756763 3.317264
v  10.048494 8.756763 3.317265
v  10.048494 1.161450 3.317264
v  12.473258 1.161450 3.317263
v  12.589615 1.055605 4.882295
v  12.589617 12.495499 4.882295
v  12.473259 12.389655 3.317264
v  0.317622 1.161450 3.317265
v  0.317624 12.389655 3.317266
v  0.000002 0.332970 12.808947
v  12.790883 0.332970 12.808948
v  12.790883 0.737267 4.882295
v  0.000000 -0.000001 8.418433
v  12.790881 0.000000 8.418439
v  12.790881 0.402292 -0.000001
v  -0.000000 12.813837 0.000001
v  0.000000 12.813840 4.882298
v  12.790885 12.813840 4.882295
v  12.790883 12.813837 -0.000001
v  12.790883 0.737267 -0.000001
v  0.317624 9.099353 3.317266
v  2.713710 9.099353 3.317266
v  2.713713 12.389654 3.317266
v  2.748909 12.461530 4.388211
v  2.748907 9.075782 4.388211
v  3.076155 9.075780 4.388211
v  3.076156 12.461530 4.388211
v  3.111356 12.389654 3.317266
v  3.111354 9.099353 3.317266
v  9.682906 9.099353 3.317265
v  9.682906 12.389655 3.317264
v  9.722994 12.461531 4.388210
v  9.722995 9.075782 4.388209
v  10.008405 9.075780 4.388210
v  10.008403 12.461528 4.388209
v  12.544726 9.075782 4.388209
v  10.008403 8.780334 4.388210
v  12.544726 8.780334 4.388209
v  2.713708 1.161450 3.317265
v  2.713710 8.756764 3.317266
v  0.317624 8.756764 3.317266
v  2.748909 1.072673 4.388210
v  3.076156 1.072673 4.388210
v  3.076156 8.780336 4.388211
v  2.748909 8.780336 4.388211
v  3.111354 1.161450 3.317265
v  9.682904 1.161450 3.317264
v  9.682904 8.756764 3.317265
v  3.111354 8.756764 3.317266
v  9.722992 1.072674 4.388209
v  10.008403 1.072673 4.388209
v  9.722994 8.780334 4.388210
v  0.238904 8.780334 4.388212
v  0.238905 9.075782 4.388212
v  10.048494 12.389654 3.317264
v  10.048495 9.099353 3.317265
v  12.473259 9.099353 3.317264
# 69 vertices

vn 0.000001 0.000000 1.000000
vn 0.000000 -0.000000 1.000000
vn 0.000000 -0.000001 1.000000
vn -0.000000 0.000000 -1.000000
vn -0.997248 0.000000 0.074143
vn 0.997248 -0.000000 0.074144
vn -0.000000 0.997721 0.067477
vn 0.000000 -0.997721 0.067476
vn -0.000000 0.998702 0.050938
vn 0.000000 -0.997137 0.075621
vn 0.000000 -0.998860 -0.047732
vn -1.000000 0.000000 0.000000
vn -1.000000 0.000001 0.000000
vn -0.000000 1.000000 -0.000000
vn 1.000000 -0.000000 -0.000000
vn 1.000000 -0.000002 -0.000000
vn 1.000000 -0.000001 -0.000000
vn 0.000000 0.000000 1.000000
vn 0.000003 0.000000 1.000000
vn -0.000001 0.000002 1.000000
vn -0.000000 0.000000 1.000000
vn 0.000001 -0.000000 1.000000
vn 0.000001 0.000001 1.000000
vn 0.000000 0.000001 1.000000
vn 0.999460 -0.000000 0.032848
vn -0.000000 -0.999758 0.022005
vn -0.999300 0.000000 0.037407
vn 0.999300 -0.000000 0.037409
vn 0.000000 -0.999758 0.022006
vn -0.000000 0.999758 0.022005
vn 0.999300 0.000000 0.037409
vn -0.999300 -0.000000 0.037407
vn 0.999460 -0.000000 0.032849
vn -0.999460 0.000001 0.032847
vn 0.000000 0.999758 0.022004
vn 0.000000 -0.999758 0.022005
vn -0.999460 0.000000 0.032850
# 37 vertex normals

vt 1.000000 0.036753 0.000000
vt 1.000000 1.000000 0.000000
vt 0.984265 0.986456 0.000000
vt 0.984265 0.055003 0.000000
vt 0.000000 1.000000 0.000000
vt 0.015735 0.986456 0.000000
vt 0.000000 0.036753 0.000000
vt 0.015735 0.055662 0.000000
vt 1.000000 0.014390 0.000000
vt 0.000000 0.014390 0.000000
vt 0.975186 0.682169 0.000000
vt 0.784851 0.682676 0.000000
vt 0.785598 0.063349 0.000000
vt 0.975168 0.063263 0.000000
vt 0.975168 0.978196 0.000000
vt 0.024832 0.063922 0.000000
vt 0.024832 0.978196 0.000000
vt 0.000000 0.008981 0.000000
vt 1.000000 0.008981 0.000000
vt 0.000000 0.000000 0.000000
vt 1.000000 0.000000 0.000000
vt 1.000000 0.014391 0.000000
vt 0.024855 0.710278 0.000000
vt 0.212895 0.709732 0.000000
vt 0.212160 0.978196 0.000000
vt 0.213125 0.984032 0.000000
vt 0.214008 0.709102 0.000000
vt 0.241555 0.708833 0.000000
vt 0.242281 0.984037 0.000000
vt 0.243248 0.978196 0.000000
vt 0.242598 0.709697 0.000000
vt 0.757816 0.709642 0.000000
vt 0.757016 0.978196 0.000000
vt 0.758123 0.984034 0.000000
vt 0.759064 0.709028 0.000000
vt 0.783610 0.708750 0.000000
vt 0.784491 0.984039 0.000000
vt 0.980899 0.709406 0.000000
vt 0.783603 0.683293 0.000000
vt 0.980740 0.682832 0.000000
vt 0.212160 0.063693 0.000000
vt 0.212948 0.682787 0.000000
vt 0.024882 0.682382 0.000000
vt 0.213116 0.056464 0.000000
vt 0.242277 0.056355 0.000000
vt 0.241531 0.683378 0.000000
vt 0.213993 0.683652 0.000000
vt 0.243248 0.063577 0.000000
vt 0.757016 0.063388 0.000000
vt 0.757835 0.682689 0.000000
vt 0.242642 0.682749 0.000000
vt 0.758122 0.056160 0.000000
vt 0.784486 0.056125 0.000000
vt 0.759056 0.683568 0.000000
vt 0.018759 0.683399 0.000000
vt 0.018732 0.709520 0.000000
vt 0.784831 0.709630 0.000000
vt 0.785598 0.978196 0.000000
vt 0.975176 0.710085 0.000000
# 59 texture coords

g raam01
usemtl 10___Default
s off
f 1/1/1 2/2/1 3/3/1 4/4/1 
f 5/5/2 6/6/2 3/3/2 2/2/2 
f 5/5/2 7/7/2 8/8/2 6/6/2 
f 1/1/3 4/4/3 8/8/3 7/7/3 
f 9/1/4 10/9/4 11/10/4 12/7/4 
s 4
f 13/11/2 14/12/2 15/13/2 16/14/2 
s off
f 17/4/5 18/3/5 19/15/5 16/14/5 
f 6/6/6 8/8/6 20/16/6 21/17/6 
f 17/4/7 16/14/7 20/16/7 8/8/7 
f 6/6/8 21/17/8 19/15/8 18/3/8 
f 7/7/9 22/18/9 23/19/9 24/1/9 
f 22/18/10 25/20/10 26/21/10 23/19/10 
f 27/22/11 26/21/11 25/20/11 11/10/11 
s 32
f 28/5/12 12/7/12 7/7/12 29/5/12 
s off
f 7/7/12 12/7/12 11/10/12 
f 7/7/13 11/10/13 25/20/13 22/18/13 
s 16
f 28/5/14 29/5/14 30/2/14 31/2/14 
s 8
f 32/1/15 31/2/15 30/2/15 24/1/15 
s off
f 32/1/16 24/1/16 27/22/16 
f 27/22/17 24/1/17 23/19/17 26/21/17 
s 2
f 12/7/4 28/5/4 31/2/4 32/1/4 
s 4
f 21/17/2 33/23/2 34/24/2 35/25/2 
f 36/26/2 37/27/2 38/28/2 39/29/2 
f 40/30/2 41/31/2 42/32/18 43/33/18 
f 44/34/19 45/35/20 46/36/21 47/37/19 
f 48/38/2 46/36/21 49/39/22 50/40/2 
f 20/16/2 51/41/2 52/42/2 53/43/2 
f 54/44/2 55/45/2 56/46/2 57/47/2 
f 58/48/2 59/49/2 60/50/2 61/51/2 
f 62/52/22 63/53/22 49/39/22 64/54/23 
f 65/55/24 57/47/2 37/27/2 66/56/24 
f 57/42/2 56/51/2 38/31/2 37/24/2 
f 56/46/2 64/54/23 45/35/20 38/28/2 
f 64/50/23 49/12/22 46/57/21 45/32/20 
f 19/15/18 67/58/18 68/57/18 69/59/2 
s off
f 58/48/25 61/51/25 56/46/25 55/45/25 
f 61/51/26 60/50/26 64/54/26 56/46/26 
f 60/50/27 59/49/27 62/52/27 64/54/27 
f 15/13/28 14/12/28 49/39/28 63/53/28 
f 14/12/29 13/11/29 50/40/29 49/39/29 
f 69/59/30 68/57/30 46/36/30 48/38/30 
f 68/57/31 67/58/31 47/37/31 46/36/31 
f 43/33/32 42/32/32 45/35/32 44/34/32 
f 42/32/30 41/31/30 38/28/30 45/35/30 
f 41/31/33 40/30/33 39/29/33 38/28/33 
f 35/25/34 34/24/34 37/27/34 36/26/34 
f 34/24/35 33/23/35 66/56/35 37/27/35 
f 53/43/36 52/42/36 57/47/36 65/55/36 
f 52/42/37 51/41/37 54/44/37 57/47/37 
# 47 polygons - 2 triangles

