# 3ds Max Wavefront OBJ Exporter v0.97b - (c)2007 guruware
# File Created: 13.09.2011 15:50:57

mtllib window_skylight.mtl

#
# object Box022
#

v  0.000000 12.814105 0.000001
v  12.794034 12.814102 0.000001
v  12.794034 0.000001 0.000000
v  0.000000 0.000001 0.000000
v  12.794034 0.000001 6.550260
v  0.000000 0.000001 6.550260
v  12.794034 12.814099 6.550260
v  0.000000 12.814104 6.550260
v  12.115612 0.447212 6.550260
v  0.678422 0.447212 6.550260
v  12.115612 12.366892 6.550260
v  0.678422 12.366893 6.550260
v  0.678422 0.447212 6.049192
v  6.397017 0.447212 6.049192
v  2.707798 2.468997 9.512294
v  12.115612 0.447212 6.049192
v  12.115612 6.407051 6.049192
v  10.100921 2.468997 9.512292
v  12.115612 12.366893 6.049192
v  6.397017 12.366893 6.049192
v  10.100921 10.356549 9.512292
v  0.678422 12.366893 6.049192
v  0.678422 6.407051 6.049192
v  2.707798 10.356552 9.512293
v  3.887870 3.718560 11.167966
v  3.138289 6.407642 11.145518
v  6.396324 4.321580 12.692916
v  5.052876 6.406793 12.816258
v  6.397523 2.806110 11.130490
v  8.912216 3.718560 11.167966
v  9.670756 6.407640 11.145516
v  7.743370 6.406793 12.816258
v  8.912216 9.100227 11.167966
v  6.397523 10.018977 11.130490
v  6.396324 8.547913 12.692914
v  3.887870 9.100229 11.167966
# 36 vertices

vn 0.000000 0.000000 -1.000000
vn 0.000000 -1.000000 -0.000000
vn 1.000000 0.000000 -0.000000
vn 0.000000 1.000000 0.000000
vn -1.000000 0.000000 -0.000000
vn 0.000000 -0.000000 1.000000
vn -0.000000 -0.000000 1.000000
vn -0.545067 -0.544653 0.637382
vn -0.000033 -0.885174 0.465260
vn -0.573407 -0.505308 0.644878
vn 0.545468 -0.545857 0.636007
vn 0.868272 0.000004 0.496089
vn 0.574481 -0.503675 0.645200
vn 0.546408 0.546169 0.634931
vn -0.000032 0.886188 0.463326
vn 0.574080 0.504699 0.644756
vn -0.546005 0.544964 0.636312
vn -0.867282 0.000003 0.497817
vn -0.573005 0.506326 0.644437
vn -0.563128 -0.422350 0.710287
vn -0.807648 -0.000111 0.589665
vn -0.000499 -0.447564 0.894252
vn -0.381830 -0.001628 0.924231
vn -0.000227 -0.798807 0.601588
vn 0.562293 -0.422472 0.710876
vn 0.807680 -0.000113 0.589621
vn 0.380635 -0.001629 0.924724
vn 0.564547 0.421097 0.709904
vn -0.000228 0.802614 0.596499
vn -0.000506 0.453139 0.891440
vn -0.565386 0.420976 0.709307
# 31 vertex normals

vt 1.000000 1.000000 0.000000
vt 1.000000 0.000000 0.000000
vt 0.000000 0.000000 0.000000
vt -0.000000 1.000000 0.000000
vt 0.055217 0.053026 0.000000
vt 0.055217 0.946974 0.000000
vt 0.947323 0.053026 0.000000
vt 0.947322 0.946974 0.000000
vt 0.055217 0.500000 0.000000
vt 0.192678 0.788355 0.000000
vt 0.500000 0.053026 0.000000
vt 0.192678 0.210498 0.000000
vt 0.947323 0.500000 0.000000
vt 0.808215 0.210498 0.000000
vt 0.500000 0.946974 0.000000
vt 0.808215 0.788355 0.000000
vt 0.290193 0.696119 0.000000
vt 0.500046 0.754707 0.000000
vt 0.337252 0.500054 0.000000
vt 0.499980 0.605060 0.000000
vt 0.218986 0.499960 0.000000
vt 0.290193 0.303408 0.000000
vt 0.500046 0.244120 0.000000
vt 0.499980 0.394767 0.000000
vt 0.710173 0.303409 0.000000
vt 0.781871 0.499961 0.000000
vt 0.667071 0.500054 0.000000
vt 0.710173 0.696119 0.000000
# 28 texture coords

g Box022
usemtl 17___Default
s 1
f 1/1/1 2/2/1 3/3/1 4/4/1 
s 2
f 3/3/2 5/3/2 6/4/2 4/4/2 
s 4
f 3/3/3 2/2/3 7/2/3 5/3/3 
s 2
f 1/1/4 8/1/4 7/2/4 2/2/4 
s 4
f 1/1/5 4/4/5 6/4/5 8/1/5 
s 1
f 5/3/6 9/5/6 10/6/7 6/4/7 
f 7/2/7 11/7/7 9/5/6 5/3/6 
f 7/2/7 8/1/6 12/8/6 11/7/7 
f 6/4/7 10/6/7 12/8/6 8/1/6 
f 13/6/8 14/9/9 15/10/10 
f 16/5/11 17/11/12 18/12/13 
f 19/7/14 20/13/15 21/14/16 
f 22/8/17 23/15/18 24/16/19 
f 25/17/20 26/18/21 23/15/18 15/10/10 
f 27/19/22 28/20/23 25/17/20 
f 25/17/20 29/21/24 27/19/22 
f 29/21/24 30/22/25 27/19/22 
f 30/22/25 31/23/26 32/24/27 
f 31/23/26 33/25/28 32/24/27 
f 33/25/28 34/26/29 35/27/30 
f 34/26/29 36/28/31 35/27/30 
f 36/28/31 26/18/21 28/20/23 
f 26/18/21 25/17/20 28/20/23 
f 32/24/27 35/27/30 28/20/23 
f 32/24/27 33/25/28 35/27/30 
f 35/27/30 36/28/31 28/20/23 
f 27/19/22 30/22/25 32/24/27 
f 27/19/22 32/24/27 28/20/23 
f 15/10/10 14/9/9 29/21/24 25/17/20 
f 23/15/18 13/6/8 15/10/10 
f 17/11/12 31/23/26 30/22/25 18/12/13 
f 14/9/9 16/5/11 18/12/13 
f 21/14/16 20/13/15 34/26/29 33/25/28 
f 17/11/12 19/7/14 21/14/16 
f 20/13/15 22/8/17 24/16/19 
f 18/12/13 30/22/25 29/21/24 14/9/9 
f 36/28/31 24/16/19 23/15/18 26/18/21 
f 24/16/19 36/28/31 34/26/29 20/13/15 
f 17/11/12 21/14/16 33/25/28 31/23/26 
# 17 polygons - 22 triangles

