# 3ds Max Wavefront OBJ Exporter v0.97b - (c)2007 guruware
# File Created: 13.09.2011 15:59:19

mtllib window_roof.mtl

#
# object Box023
#

v  0.000000 12.809516 0.000001
v  12.805864 12.809516 0.000001
v  12.805864 0.000000 -0.000000
v  0.000000 0.000000 -0.000000
v  12.805864 0.000000 8.779165
v  0.000000 0.000000 8.779165
v  12.805864 11.794497 8.779165
v  0.000000 12.809516 12.808405
v  12.805864 12.809516 12.808405
v  0.000000 11.794497 8.779165
v  12.157234 0.464973 8.779164
v  0.648629 0.464973 8.779164
v  12.157234 11.794497 8.779165
v  0.000000 11.794497 12.808406
v  12.805864 11.794497 12.808406
v  11.864944 11.794497 6.153941
v  0.940922 11.794497 6.153941
v  0.940922 0.674503 6.153940
v  11.864944 0.674503 6.153940
v  0.648629 11.794497 8.779166
# 20 vertices

vn 0.000000 0.000000 -1.000000
vn 0.000000 -1.000000 -0.000000
vn 1.000000 0.000000 -0.000000
vn 0.000000 1.000000 0.000000
vn -1.000000 0.000000 -0.000000
vn -0.000001 0.000001 1.000000
vn 0.000001 0.000001 1.000000
vn -0.000000 -0.000000 1.000000
vn 0.000000 -0.000000 1.000000
vn 0.000000 0.000001 1.000000
vn -0.000001 -0.000000 1.000000
vn 0.000000 0.996830 0.079561
vn -0.993859 -0.000000 0.110656
vn 0.993859 -0.000000 0.110656
vn 0.000001 -1.000000 -0.000000
vn -0.000000 -1.000000 -0.000000
# 16 vertex normals

vt 0.010465 0.972476 0.000000
vt 0.995475 0.972476 0.000000
vt 0.995475 0.000000 0.000000
vt 0.010465 0.000000 0.000000
vt 0.995475 0.018865 0.000000
vt 0.010465 0.018866 0.000000
vt 0.995475 0.914283 0.000000
vt 0.010465 1.000000 0.000000
vt 0.995475 1.000000 0.000000
vt 0.010465 0.914283 0.000000
vt 0.955517 0.054165 0.000000
vt 0.050423 0.054165 0.000000
vt 0.955518 0.914283 0.000000
vt 0.010465 0.922941 0.000000
vt 0.995475 0.922941 0.000000
vt 0.937511 0.908642 0.000000
vt 0.068429 0.908642 0.000000
vt 0.068429 0.064431 0.000000
vt 0.937511 0.064431 0.000000
vt 0.050423 0.914283 0.000000
# 20 texture coords

g Box023
usemtl 16___Default
s 1
f 1/1/1 2/2/1 3/3/1 4/4/1 
s 2
f 3/3/2 5/5/2 6/6/2 4/4/2 
s 4
f 2/2/3 7/7/3 5/5/3 3/3/3 
s 2
f 1/1/4 8/8/4 9/9/4 2/2/4 
s 4
f 1/1/5 10/10/5 8/8/5 
s 1
f 5/5/6 11/11/6 12/12/7 6/6/7 
f 7/7/8 13/13/9 11/11/6 5/5/6 
f 9/9/10 8/8/10 14/14/10 15/15/10 
s off
f 16/16/9 17/17/9 18/18/9 19/19/9 
s 4
f 2/2/3 9/9/3 7/7/3 
f 4/4/5 6/6/5 10/10/5 1/1/5 
s 1
f 10/10/11 6/6/7 12/12/7 20/20/11 
s off
f 12/12/12 11/11/12 19/19/12 18/18/12 
f 11/11/13 13/13/13 16/16/13 19/19/13 
f 13/13/2 20/20/2 17/17/2 16/16/2 
f 20/20/14 12/12/14 18/18/14 17/17/14 
f 8/8/5 10/10/5 14/14/5 
f 10/10/15 20/20/15 14/14/15 
f 20/20/16 13/13/16 15/15/16 14/14/16 
f 13/13/2 7/7/2 15/15/2 
f 7/7/3 9/9/3 15/15/3 
# 15 polygons - 6 triangles

