# 3ds Max Wavefront OBJ Exporter v0.97b - (c)2007 guruware
# File Created: 13.09.2011 16:05:39

mtllib window_basement.mtl

#
# object kelderraam
#

v  12.795746 2.659672 4.874509
v  12.795746 12.806693 4.874509
v  12.493825 11.658292 4.874509
v  12.493825 3.808072 4.874509
v  6.397874 12.806693 4.874511
v  6.397874 11.658294 4.874511
v  0.000002 12.806694 4.874513
v  0.000002 2.659672 4.874511
v  0.301920 3.808072 4.874512
v  0.301923 11.658294 4.874512
v  6.397874 2.659672 4.874511
v  6.397873 3.808072 4.874510
v  6.397873 2.659672 -0.000000
v  6.397872 1.451256 -0.000001
v  0.000000 1.451256 0.000000
v  0.000002 2.659672 0.000000
v  12.319275 11.276463 3.311974
v  6.397872 11.276462 3.311975
v  6.397872 4.189908 3.311975
v  12.319277 4.189909 3.311974
v  12.493825 3.808077 4.874509
v  12.493823 11.658298 4.874509
v  0.476468 4.189907 3.311976
v  0.476470 11.276462 3.311976
v  6.397874 3.808074 4.874510
v  6.397872 4.189907 3.311975
v  6.397873 11.658295 4.874511
v  6.397873 2.659674 4.874511
v  6.397874 1.201184 12.788522
v  12.795746 1.201186 12.788521
v  12.795746 2.659676 4.874509
v  6.397874 0.000002 8.405013
v  12.795746 0.000003 8.405014
v  6.397873 1.451259 -0.000001
v  0.000002 0.000000 8.405009
v  0.000002 12.806694 0.000001
v  0.000001 12.806694 4.874512
v  0.000004 1.201181 12.788522
v  6.397872 12.806694 0.000000
v  6.397873 12.806696 4.874511
v  12.795745 12.806697 4.874509
v  12.795745 12.806697 -0.000001
v  12.795745 2.659676 -0.000001
v  12.795745 1.451262 -0.000001
v  6.397872 2.659674 -0.000000
v  12.795745 2.659672 -0.000001
v  12.795745 1.451256 -0.000001
# 47 vertices

vn 0.000000 -0.000000 1.000000
vn 0.000000 0.000000 1.000000
vn -0.000001 -0.000000 1.000000
vn -0.000000 0.000000 -1.000000
vn -0.993818 -0.000000 0.111018
vn 0.993818 -0.000000 0.111017
vn -0.000000 0.971416 0.237383
vn 0.000000 -0.971416 0.237382
vn -0.000000 0.983439 0.181240
vn 0.000000 -0.964446 0.264280
vn 0.000000 -0.985419 -0.170148
vn -1.000000 -0.000000 -0.000000
vn -1.000000 0.000000 0.000000
vn -1.000000 0.000001 0.000000
vn -0.000000 1.000000 -0.000000
vn -0.000000 1.000000 0.000000
vn 1.000000 0.000000 -0.000000
vn 1.000000 -0.000000 -0.000000
vn -0.000000 0.971416 0.237382
vn 0.000000 -0.971416 0.237383
# 20 vertex normals

vt 0.999999 0.091804 0.000000
vt 1.000000 0.994359 0.000000
vt 0.950039 0.913561 0.000000
vt 0.950038 0.182019 0.000000
vt 0.500000 0.994364 0.000000
vt 0.500942 0.913565 0.000000
vt 0.000000 0.994369 0.000000
vt -0.000000 0.091814 0.000000
vt 0.051844 0.182029 0.000000
vt 0.051844 0.913570 0.000000
vt 0.499999 0.091809 0.000000
vt 0.500941 0.182024 0.000000
vt 0.499999 0.095553 0.000000
vt 0.499999 0.067127 0.000000
vt -0.000001 0.067133 0.000000
vt -0.000000 0.095558 0.000000
vt 0.925098 0.854624 0.000000
vt 0.205273 0.854629 0.000000
vt 0.205272 0.196281 0.000000
vt 0.925098 0.196276 0.000000
vt 0.076784 0.196285 0.000000
vt 0.076785 0.854633 0.000000
vt 0.500941 0.196281 0.000000
vt 0.500941 0.854629 0.000000
vt 0.500941 0.913566 0.000000
vt 0.499999 0.023170 0.000000
vt 0.999999 0.023165 0.000000
vt 0.499999 0.000492 0.000000
vt 0.999999 0.000487 0.000000
vt 0.499999 0.067128 0.000000
vt -0.000001 0.000497 0.000000
vt 0.000000 0.998114 0.000000
vt -0.000001 0.023175 0.000000
vt 0.500000 0.998109 0.000000
vt 1.000000 0.994360 0.000000
vt 1.000000 0.998104 0.000000
vt 0.999999 0.095548 0.000000
vt 0.999999 0.067122 0.000000
vt 0.811675 0.196281 0.000000
vt 0.811676 0.854629 0.000000
# 40 texture coords

g kelderraam
usemtl 12___Default
s off
f 1/1/1 2/2/1 3/3/1 4/4/1 
f 5/5/2 6/6/2 3/3/2 2/2/2 
f 7/7/3 8/8/3 9/9/3 10/10/3 
f 11/11/1 12/12/1 9/9/1 8/8/1 
f 13/13/4 14/14/4 15/15/4 16/16/4 
s 4
f 17/17/1 18/18/2 19/19/1 20/20/1 
s off
f 21/4/5 22/3/5 17/17/5 20/20/5 
f 10/10/6 9/9/6 23/21/6 24/22/6 
f 25/12/7 26/23/7 23/21/7 9/9/7 
f 24/22/8 18/24/8 27/25/8 10/10/8 
f 28/11/9 29/26/9 30/27/9 31/1/9 
f 29/26/10 32/28/10 33/29/10 30/27/10 
f 34/30/11 32/28/11 35/31/11 15/15/11 
s 32
f 36/32/12 16/16/13 8/8/12 37/7/12 
s off
f 8/8/14 16/16/14 15/15/14 
f 8/8/13 15/15/13 35/31/13 38/33/13 
s 16
f 39/34/15 40/5/15 41/35/15 42/36/16 
s 8
f 43/37/17 42/36/17 41/35/17 31/1/17 
s off
f 43/37/17 31/1/17 44/38/17 
f 44/38/18 31/1/18 30/27/18 33/29/18 
s 2
f 45/13/4 39/34/4 42/36/4 43/37/4 
s off
f 5/5/1 7/7/1 10/10/1 6/6/1 
f 11/11/2 1/1/2 4/4/2 12/12/2 
f 46/37/4 47/38/4 14/14/4 13/13/4 
s 4
f 24/22/2 23/21/2 19/39/1 18/40/2 
s off
f 25/12/19 21/4/19 20/20/19 26/23/19 
f 17/17/20 22/3/20 27/25/20 18/24/20 
f 8/8/9 38/33/9 29/26/9 28/11/9 
f 38/33/10 35/31/10 32/28/10 29/26/10 
f 44/38/11 33/29/11 32/28/11 34/30/11 
s 16
f 36/32/15 37/7/16 40/5/15 39/34/15 
s 2
f 16/16/4 36/32/4 39/34/4 45/13/4 
# 30 polygons - 2 triangles

