# 3ds Max Wavefront OBJ Exporter v0.97b - (c)2007 guruware
# File Created: 13.09.2011 15:49:50

mtllib window_double.mtl

#
# object raam3
#

v  12.789972 1.374433 4.881392
v  12.789973 12.808863 4.881391
v  12.387049 12.215405 4.881392
v  12.387049 1.967890 4.881392
v  6.394987 12.808863 4.881391
v  6.583094 12.215405 4.881392
v  0.000001 12.808861 4.881392
v  0.000000 1.374433 4.881392
v  0.402925 1.967890 4.881393
v  0.402925 12.215405 4.881392
v  6.394986 1.374433 4.881392
v  6.206880 1.967890 4.881392
v  6.394987 1.374433 -0.000000
v  6.394986 0.749962 -0.000000
v  0.000001 0.749962 0.000000
v  0.000001 1.374433 0.000000
v  6.206880 12.215405 4.881392
v  6.583093 1.967890 4.881392
v  12.789972 1.374433 -0.000001
v  12.789972 0.749963 -0.000001
v  6.076764 12.018085 3.316650
v  6.076764 2.165210 3.316650
v  12.154106 12.018086 3.316650
v  6.713209 12.018086 3.316650
v  6.713210 2.165210 3.316651
v  12.154107 2.165211 3.316651
v  0.635866 12.018084 3.316651
v  0.635867 2.165210 3.316651
v  6.076765 2.165210 3.316651
v  6.076763 12.018086 3.316650
v  12.387049 1.967892 4.881392
v  12.387049 12.215407 4.881391
v  6.583093 12.215405 4.881391
v  0.402923 12.215405 4.881392
v  6.206880 1.967891 4.881392
v  6.206879 12.215405 4.881391
v  6.583093 1.967891 4.881392
v  6.394987 1.374435 4.881392
v  6.394987 0.620732 12.806575
v  12.789973 0.620734 12.806579
v  12.789972 1.374436 4.881392
v  0.000001 0.620732 12.806574
v  6.394987 0.000001 8.416879
v  12.789972 0.000002 8.416881
v  0.000001 -0.000000 8.416875
v  6.394987 0.749963 -0.000000
v  12.789972 0.749965 -0.000001
v  -0.000001 12.808861 0.000001
v  -0.000000 12.808863 4.881392
v  6.394986 12.808861 -0.000000
v  6.394986 12.808861 4.881392
v  12.789972 12.808864 4.881391
v  12.789972 12.808864 -0.000001
v  12.789972 1.374436 -0.000001
v  6.394987 1.374435 -0.000000
# 55 vertices

vn 0.000001 0.000000 1.000000
vn 0.000000 0.000001 1.000000
vn -0.000001 0.000000 1.000000
vn 0.000000 -0.000001 1.000000
vn -0.000000 0.000000 -1.000000
vn 0.000000 0.000000 1.000000
vn -0.996560 -0.000000 0.082869
vn -0.996561 0.000000 0.082868
vn -0.000000 0.000000 1.000000
vn -0.000000 -0.000000 1.000000
vn -0.989100 -0.000000 0.147247
vn 0.000000 -0.992142 0.125113
vn 0.989100 0.000000 0.147247
vn -0.000000 0.992143 0.125113
vn -0.000000 0.992142 0.125113
vn 0.996560 0.000000 0.082869
vn -0.000000 -0.000000 -1.000000
vn -0.000001 -0.000000 -1.000000
vn -0.000000 0.995508 0.094675
vn 0.000000 -0.990150 0.140014
vn 0.000000 -0.996054 -0.088751
vn -1.000000 -0.000000 0.000000
vn -1.000000 -0.000000 -0.000000
vn -1.000000 0.000000 -0.000000
vn -1.000000 -0.000001 0.000000
vn -0.000000 1.000000 0.000000
vn -0.000000 1.000000 -0.000000
vn 0.000000 1.000000 -0.000000
vn 1.000000 0.000000 -0.000000
# 29 vertex normals

vt 1.000001 0.038423 0.000000
vt 1.000001 1.000000 0.000000
vt 0.934058 0.968018 0.000000
vt 0.934058 0.047445 0.000000
vt 0.500001 1.000000 0.000000
vt 0.511838 0.968018 0.000000
vt 0.000001 1.000000 0.000000
vt 0.000001 0.038423 0.000000
vt 0.040114 0.044575 0.000000
vt 0.040114 0.953668 0.000000
vt 0.500001 0.038423 0.000000
vt 0.488164 0.044575 0.000000
vt 0.500001 0.026980 0.000000
vt 0.000001 0.026980 0.000000
vt 0.485294 0.953668 0.000000
vt 0.511838 0.047445 0.000000
vt 1.000001 0.026980 0.000000
vt 0.477990 0.938263 0.000000
vt 0.477990 0.059980 0.000000
vt 0.910105 0.909563 0.000000
vt 0.539232 0.909563 0.000000
vt 0.539232 0.108770 0.000000
vt 0.910105 0.108770 0.000000
vt 0.058327 0.938263 0.000000
vt 0.058327 0.059980 0.000000
vt 0.500001 0.016891 0.000000
vt 1.000001 0.016891 0.000000
vt 0.000001 0.016891 0.000000
vt 0.500001 0.000000 0.000000
vt 1.000001 0.000000 0.000000
vt 0.000001 0.000000 0.000000
vt 1.000001 0.026981 0.000000
# 32 texture coords

g raam3
usemtl 04___Default
s off
f 1/1/1 2/2/1 3/3/1 4/4/1 
f 5/5/2 6/6/2 3/3/2 2/2/2 
f 7/7/3 8/8/3 9/9/3 10/10/3 
f 11/11/4 12/12/4 9/9/4 8/8/4 
f 13/11/5 14/13/5 15/14/5 16/8/5 
f 5/5/2 7/7/2 10/10/2 17/15/2 
f 11/11/4 1/1/4 4/4/4 18/16/4 
f 19/1/5 20/17/5 14/13/5 13/11/5 
f 5/5/2 17/15/2 6/6/2 
f 11/11/4 18/16/4 12/12/4 
s 2
f 6/6/6 17/15/6 12/12/6 18/16/6 
s 1
f 17/15/7 21/18/7 22/19/8 12/12/8 
s 4
f 23/20/6 24/21/6 25/22/9 26/23/9 
f 27/24/6 28/25/10 29/19/6 30/18/6 
s off
f 31/4/11 32/3/11 23/20/11 26/23/11 
f 33/6/12 24/21/12 23/20/12 32/3/12 
f 34/10/13 9/9/13 28/25/13 27/24/13 
f 35/12/14 29/19/14 28/25/14 9/9/14 
f 36/15/12 34/10/12 27/24/12 30/18/12 
f 37/16/15 31/4/15 26/23/15 25/22/15 
s 1
f 24/21/16 33/6/16 37/16/16 25/22/16 
s 2
f 30/18/17 24/21/17 25/22/18 29/19/18 
s off
f 38/11/19 39/26/19 40/27/19 41/1/19 
f 8/8/19 42/28/19 39/26/19 38/11/19 
f 39/26/20 43/29/20 44/30/20 40/27/20 
f 42/28/20 45/31/20 43/29/20 39/26/20 
f 46/13/21 43/29/21 45/31/21 15/14/21 
f 47/32/21 44/30/21 43/29/21 46/13/21 
s 32
f 48/7/22 16/8/23 8/8/23 49/7/22 
s off
f 8/8/24 16/8/24 15/14/24 
f 8/8/25 15/14/25 45/31/25 42/28/25 
s 16
f 50/5/26 51/5/27 52/2/26 53/2/26 
f 48/7/28 49/7/28 51/5/27 50/5/26 
s 8
f 54/1/29 53/2/29 52/2/29 41/1/29 
s off
f 54/1/29 41/1/29 47/32/29 
f 47/32/29 41/1/29 40/27/29 44/30/29 
s 2
f 55/11/5 50/5/5 53/2/5 54/1/17 
f 16/8/5 48/7/5 50/5/5 55/11/5 
# 34 polygons - 4 triangles

